<?xml version="1.0" encoding="UTF-8"?>
<svg version="1.1" xmlns="http://www.w3.org/2000/svg" width="609" height="486">
<path d="M0 0 C200.97 0 401.94 0 609 0 C609 160.38 609 320.76 609 486 C408.03 486 207.06 486 0 486 C0 325.62 0 165.24 0 0 Z " fill="#FEFEFE" transform="translate(0,0)"/>
<path d="M0 0 C1.70736328 0.88365234 1.70736328 0.88365234 3.44921875 1.78515625 C8.51655846 5.44020899 9.57753072 11.31010068 11.36920166 17.0279541 C15.41635385 29.6804444 19.9405654 37.70992509 30.94824219 45.44775391 C34.87760895 48.42049473 38.28837255 51.94277639 41.75 55.4375 C42.46889404 56.16074463 43.18778809 56.88398926 43.9284668 57.62915039 C50.18896448 64.02360098 55.72732396 70.78148014 61 78 C61.85806152 79.15105017 62.71613451 80.30209177 63.57421875 81.453125 C69.61163536 89.64183145 75.01404996 98.13451561 80 107 C80.4345752 107.7719873 80.86915039 108.54397461 81.31689453 109.33935547 C88.80029618 122.78289442 94.79147372 136.53131499 100 151 C100.32484375 151.89750977 100.6496875 152.79501953 100.984375 153.71972656 C104.49185902 163.51983817 107.5135857 173.3908092 110 183.5 C110.22010742 184.37865723 110.44021484 185.25731445 110.66699219 186.16259766 C112.49065582 193.96280716 112.49065582 193.96280716 111 198 C109 200 109 200 106.0625 200.4375 C103 200 103 200 101.46875 198.01953125 C99.60838236 194.19489246 98.55532154 190.34234305 97.4375 186.25 C88.72825521 156.0457772 75.12758354 126.722611 53 104 C52.09894531 103.03707031 51.19789063 102.07414062 50.26953125 101.08203125 C31.84188727 81.68760005 8.04662696 70.45886084 -17 62 C-17.12375 62.55042969 -17.2475 63.10085937 -17.375 63.66796875 C-24.84534585 93.78280045 -40.46957375 128.05455958 -67.4375 145.4375 C-80.9008989 153.19306272 -93.67171463 156.37867914 -109.0625 156.3125 C-110.97144043 156.31056641 -110.97144043 156.31056641 -112.91894531 156.30859375 C-126.95735547 156.21254917 -140.92700736 155.03609377 -154.90856934 153.85774231 C-170.19666622 152.58460196 -179.31827339 152.45084906 -191.75 162.6875 C-198.69409104 169.18438661 -202.92164958 177.5295799 -207 186 C-208 187 -208 187 -211.5625 187.0625 C-212.696875 187.041875 -213.83125 187.02125 -215 187 C-215.13051758 188.77721436 -215.13051758 188.77721436 -215.26367188 190.59033203 C-216.02887811 197.41685589 -217.96385482 203.94835186 -219.78125 210.5546875 C-220.15912874 211.94696133 -220.53643828 213.33938976 -220.91320801 214.73196411 C-221.89981739 218.3721276 -222.89455114 222.01002245 -223.89093018 225.64752197 C-224.70455245 228.62308516 -225.51248052 231.60018005 -226.32010651 234.57737541 C-227.98814449 240.72619407 -229.66062957 246.87380082 -231.34179688 253.01904297 C-231.63856323 254.10442352 -231.93532959 255.18980408 -232.24108887 256.30807495 C-232.77993325 258.21940374 -233.3720246 260.1160738 -234 262 C-232.99259766 262.32484375 -232.99259766 262.32484375 -231.96484375 262.65625 C-228.05594606 264.42787162 -224.94265577 266.88078751 -221.5625 269.5 C-220.12732523 270.59509219 -218.69110912 271.68882086 -217.25390625 272.78125 C-216.53734863 273.32652344 -215.82079102 273.87179687 -215.08251953 274.43359375 C-212.09540898 276.68040516 -209.05368087 278.84500528 -206 281 C-198.8510928 286.06188917 -191.85496302 291.31874366 -184.86474609 296.59667969 C-183.15063043 297.88664261 -181.43074356 299.16821516 -179.70703125 300.4453125 C-156.26769209 317.85046215 -156.26769209 317.85046215 -153 327 C-151.73853431 337.25626454 -153.79439659 344.48014553 -160 352.625 C-162 354 -162 354 -164.5625 354.5 C-167 354 -167 354 -168.875 352.375 C-170.43850811 349.07426066 -170.02668646 347.49073397 -169 344 C-168.33702948 342.83980158 -167.64799573 341.6942182 -166.9375 340.5625 C-164.7477935 336.92101006 -164.37719034 334.2818164 -165 330 C-167.88320771 324.78750134 -171.38778123 321.82395484 -176.125 318.4375 C-176.82149658 317.92719238 -177.51799316 317.41688477 -178.2355957 316.89111328 C-180.48244933 315.24946015 -182.73985482 313.62329545 -185 312 C-186.53268129 310.89471039 -188.0652332 309.78924137 -189.59765625 308.68359375 C-191.89305786 307.02827012 -194.18907903 305.37386609 -196.48779297 303.72314453 C-200.97114652 300.49609935 -205.3914303 297.20594339 -209.75 293.8125 C-214.2703057 290.30180572 -218.8463413 286.89290415 -223.5 283.5625 C-224.07588867 283.14911377 -224.65177734 282.73572754 -225.24511719 282.30981445 C-228.41711847 280.05482177 -231.63378642 277.95315751 -235 276 C-234.67 276.66 -234.34 277.32 -234 278 C-233.8488237 280.37052952 -233.75465715 282.71594492 -233.70288086 285.08911133 C-233.68322769 285.81954651 -233.66357452 286.54998169 -233.64332581 287.30255127 C-233.57923782 289.72895021 -233.52196521 292.15545907 -233.46484375 294.58203125 C-233.42179801 296.27439797 -233.37838132 297.96675529 -233.33460999 299.65910339 C-233.24354167 303.21757585 -233.15559114 306.77610681 -233.07006836 310.3347168 C-232.96121074 314.86234629 -232.84691037 319.38981563 -232.73049068 323.91725636 C-232.64066456 327.42028733 -232.55272176 330.9233635 -232.46542549 334.42645836 C-232.42387808 336.09316479 -232.38201966 337.75986351 -232.33982658 339.42655373 C-232.10068033 348.95379319 -231.9389825 358.46909241 -232 368 C-230.98498413 367.97516541 -230.98498413 367.97516541 -229.94946289 367.9498291 C-227.21643472 367.88692585 -224.4834892 367.85011682 -221.75 367.8125 C-220.29787109 367.77479492 -220.29787109 367.77479492 -218.81640625 367.73632812 C-217.88183594 367.72666016 -216.94726562 367.71699219 -215.984375 367.70703125 C-215.12553711 367.6913208 -214.26669922 367.67561035 -213.38183594 367.65942383 C-210.51716184 368.06904051 -209.14936836 369.113864 -207 371 C-207.875 377.875 -207.875 377.875 -209 379 C-210.40125337 379.10322198 -211.8076127 379.1384943 -213.21264648 379.14526367 C-214.55425087 379.15483345 -214.55425087 379.15483345 -215.92295837 379.16459656 C-217.38228539 379.16626579 -217.38228539 379.16626579 -218.87109375 379.16796875 C-219.86375748 379.17129715 -220.8564212 379.17462555 -221.87916565 379.17805481 C-223.9833225 379.1831284 -226.08748743 379.185463 -228.19165039 379.18530273 C-231.42021883 379.1874883 -234.64844527 379.20563699 -237.87695312 379.22460938 C-239.91666549 379.22754332 -241.95637949 379.22952811 -243.99609375 379.23046875 C-244.96695419 379.23765427 -245.93781464 379.24483978 -246.93809509 379.25224304 C-247.83565018 379.24916641 -248.73320526 379.24608978 -249.65795898 379.24291992 C-250.44992172 379.24434494 -251.24188446 379.24576996 -252.05784607 379.24723816 C-254 379 -254 379 -256 377 C-256.55528672 371.78030486 -256.55528672 371.78030486 -254.8046875 369.3203125 C-252.37261522 367.54100421 -250.79170104 367.69642723 -247.8125 367.8125 C-246.91144531 367.83957031 -246.01039063 367.86664063 -245.08203125 367.89453125 C-244.05142578 367.94673828 -244.05142578 367.94673828 -243 368 C-243.15887192 367.4816156 -243.31774384 366.9632312 -243.48143005 366.42913818 C-244.14766309 363.30830151 -244.21093181 360.3250264 -244.29711914 357.13378906 C-244.31677231 356.44999176 -244.33642548 355.76619446 -244.35667419 355.06167603 C-244.42058455 352.7964231 -244.47801587 350.53105807 -244.53515625 348.265625 C-244.57827157 346.66973075 -244.62168816 345.07384461 -244.66539001 343.47796631 C-244.7563947 340.11884235 -244.84429855 336.75965572 -244.92993164 333.40039062 C-245.03795313 329.16903155 -245.15263447 324.93788725 -245.26949501 320.70676422 C-245.77090488 302.46707325 -246.15400763 284.24819327 -246 266 C-246.9263047 265.54747108 -246.9263047 265.54747108 -247.87132263 265.08580017 C-250.15823597 263.91928667 -252.14102484 262.56791472 -254.22265625 261.06640625 C-255.40118164 260.2165918 -255.40118164 260.2165918 -256.60351562 259.34960938 C-257.41498047 258.75986328 -258.22644531 258.17011719 -259.0625 257.5625 C-260.28549805 256.68368164 -260.28549805 256.68368164 -261.53320312 255.78710938 C-266.06560143 252.50605522 -266.06560143 252.50605522 -268 251 C-268.57935303 250.60675537 -269.15870605 250.21351074 -269.75561523 249.80834961 C-271.88410337 246.71521411 -271.45873129 243.56237884 -271 240 C-270.02951887 235.55959019 -268.77606353 231.21658258 -267.5 226.85546875 C-266.95748568 224.95092258 -266.41497496 223.04637538 -265.87268066 221.14176655 C-265.115836 218.49349442 -264.34940533 215.84803516 -263.58300781 213.20251465 C-262.23760445 208.55247838 -260.90521506 203.89870781 -259.57617188 199.24397278 C-258.86865678 196.76970637 -258.15654901 194.29674779 -257.43945312 191.82524109 C-257.11912109 190.71010635 -256.79878906 189.59497162 -256.46875 188.44604492 C-256.18451172 187.46423752 -255.90027344 186.48243011 -255.60742188 185.47087097 C-254.88063732 182.93852944 -254.88063732 182.93852944 -255 180 C-255.97682739 179.35454224 -255.97682739 179.35454224 -256.97338867 178.69604492 C-259 177 -259 177 -259.4699707 174.21606445 C-259.45538818 173.109646 -259.44080566 172.00322754 -259.42578125 170.86328125 C-259.41740234 169.64576172 -259.40902344 168.42824219 -259.40039062 167.17382812 C-259.37138672 165.89958984 -259.34238281 164.62535156 -259.3125 163.3125 C-259.30283203 162.05759766 -259.29316406 160.80269531 -259.28320312 159.50976562 C-259.2075531 153.26370453 -258.95533568 147.17473064 -258 141 C-259.82917969 140.6596875 -259.82917969 140.6596875 -261.6953125 140.3125 C-268.02346767 138.89910494 -273.89362302 136.46451549 -279.875 134 C-281.05650635 133.51668213 -282.2380127 133.03336426 -283.45532227 132.53540039 C-293.020437 128.55290632 -302.19772791 124.03864633 -311.23022461 118.97045898 C-311.81425049 118.65020752 -312.39827637 118.32995605 -313 118 C-313.58755538 117.65452842 -314.17511076 117.30905684 -314.78047085 116.95311642 C-317.44559973 115.80864932 -319.38507034 115.76177669 -322.28224182 115.77967834 C-323.88688293 115.78205757 -323.88688293 115.78205757 -325.52394104 115.78448486 C-327.27661537 115.80234039 -327.27661537 115.80234039 -329.06469727 115.82055664 C-330.29916595 115.82508347 -331.53363464 115.82961029 -332.80551147 115.83427429 C-335.48750152 115.84523898 -338.16919851 115.85979368 -340.85110664 115.88023567 C-345.09065509 115.91206484 -349.33016593 115.92754679 -353.56980896 115.94029236 C-364.09821227 115.97436645 -374.62651232 116.02709273 -385.15478516 116.0894165 C-393.34092344 116.13784209 -401.5269697 116.17993618 -409.71323055 116.20092481 C-413.92914105 116.21245967 -418.1446702 116.23789316 -422.36044133 116.27367222 C-425.59515716 116.29733602 -428.82990933 116.30155727 -432.06469727 116.30883789 C-433.23517105 116.32276581 -434.40564484 116.33669373 -435.61158752 116.3510437 C-437.2119989 116.34919319 -437.2119989 116.34919319 -438.84474182 116.3473053 C-439.77332284 116.35266831 -440.70190386 116.35803133 -441.6586237 116.36355686 C-444 116 -444 116 -445.80902004 114.65114498 C-447 113 -447 113 -447.2109375 110.234375 C-445.37398891 105.32794459 -441.80361992 103.22009749 -437.625 100.25 C-436.84382813 99.67378906 -436.06265625 99.09757812 -435.2578125 98.50390625 C-432.212609 96.26693313 -429.14419283 94.09612855 -426 92 C-426.58491211 91.9906543 -427.16982422 91.98130859 -427.77246094 91.97167969 C-430.4324858 91.91786721 -433.09077222 91.83424551 -435.75 91.75 C-437.13058594 91.72873047 -437.13058594 91.72873047 -438.5390625 91.70703125 C-445.27863052 91.462844 -445.27863052 91.462844 -448.703125 89.265625 C-450 87 -450 87 -449.9609375 84.4609375 C-447.30542655 77.66023872 -439.17391631 73.66570674 -433.2265625 70.00390625 C-430.84026501 68.52185951 -428.48961067 67.01508004 -426.1484375 65.46484375 C-411.65584074 55.88455726 -396.59580167 47.5352866 -380.96679688 39.95898438 C-379.02747843 39.01339812 -377.09967401 38.04693735 -375.171875 37.078125 C-309.90956791 4.76748136 -223.69418866 -7.05517786 -153.5234375 16.01953125 C-125.21994811 25.8579864 -101.78515538 43.55883166 -88.125 70.625 C-87.75375 71.40875 -87.3825 72.1925 -87 73 C-83.63096033 66.23747653 -81.75025603 59.54338142 -80.125 52.1875 C-72.41967063 18.94352476 -72.41967063 18.94352476 -65 8 C-64.56300781 7.35160156 -64.12601562 6.70320313 -63.67578125 6.03515625 C-48.09157111 -14.37167479 -19.66755004 -12.70985283 0 0 Z " fill="#3A5E74" transform="translate(476,63)"/>
<path d="M0 0 C1.04591309 -0.01568527 2.09182617 -0.03137054 3.16943359 -0.04753113 C5.38157996 -0.07211808 7.59387192 -0.08573257 9.80615234 -0.08911133 C13.15067002 -0.10529058 16.4887552 -0.19066624 19.83203125 -0.27929688 C33.59216692 -0.45407653 41.43522853 1.03715932 52.1875 9.70703125 C56.01157686 11.90545561 57.71882565 12.70703125 62.1875 12.70703125 C62.001875 12.08828125 61.81625 11.46953125 61.625 10.83203125 C61.1875 8.70703125 61.1875 8.70703125 62.1875 6.70703125 C61.1975 6.21203125 61.1975 6.21203125 60.1875 5.70703125 C59.6925 3.23203125 59.6925 3.23203125 59.1875 0.70703125 C136.4075 0.70703125 213.6275 0.70703125 293.1875 0.70703125 C290.4833654 6.11530046 286.53873949 9.57441157 282.1875 13.70703125 C281.56746094 14.29742187 280.94742187 14.8878125 280.30859375 15.49609375 C265.90511888 28.62409892 249.45802372 37.74815186 231.1484375 44.125 C230.50422852 44.34986084 229.86001953 44.57472168 229.19628906 44.80639648 C227.40779357 45.42411817 225.61417223 46.0269399 223.8203125 46.62890625 C221.05467212 47.42415057 221.05467212 47.42415057 220.1875 49.70703125 C219.5275 49.70703125 218.8675 49.70703125 218.1875 49.70703125 C218.1875 53.99703125 218.1875 58.28703125 218.1875 62.70703125 C216.558125 63.53203125 214.92875 64.35703125 213.25 65.20703125 C200.19268722 72.39777218 193.52846058 82.53734388 187.1875 95.70703125 C186.1875 96.70703125 186.1875 96.70703125 182.625 96.76953125 C181.490625 96.74890625 180.35625 96.72828125 179.1875 96.70703125 C179.10048828 97.89184082 179.01347656 99.07665039 178.92382812 100.29736328 C178.15862189 107.12388714 176.22364518 113.65538311 174.40625 120.26171875 C174.02837126 121.65399258 173.65106172 123.04642101 173.27429199 124.43899536 C172.28768261 128.07915885 171.29294886 131.7170537 170.29656982 135.35455322 C169.48294755 138.33011641 168.67501948 141.3072113 167.86739349 144.28440666 C166.19935551 150.43322532 164.52687043 156.58083207 162.84570312 162.72607422 C162.54893677 163.81145477 162.25217041 164.89683533 161.94641113 166.0151062 C161.40756675 167.92643499 160.8154754 169.82310505 160.1875 171.70703125 C160.85910156 171.92359375 161.53070313 172.14015625 162.22265625 172.36328125 C166.13155394 174.13490287 169.24484423 176.58781876 172.625 179.20703125 C174.06017477 180.30212344 175.49639088 181.39585211 176.93359375 182.48828125 C177.65015137 183.03355469 178.36670898 183.57882812 179.10498047 184.140625 C182.09209102 186.38743641 185.13381913 188.55203653 188.1875 190.70703125 C195.3364072 195.76892042 202.33253698 201.02577491 209.32275391 206.30371094 C211.03686957 207.59367386 212.75675644 208.87524641 214.48046875 210.15234375 C237.91980791 227.5574934 237.91980791 227.5574934 241.1875 236.70703125 C242.44896569 246.96329579 240.39310341 254.18717678 234.1875 262.33203125 C232.1875 263.70703125 232.1875 263.70703125 229.625 264.20703125 C227.1875 263.70703125 227.1875 263.70703125 225.3125 262.08203125 C223.74899189 258.78129191 224.16081354 257.19776522 225.1875 253.70703125 C225.85047052 252.54683283 226.53950427 251.40124945 227.25 250.26953125 C229.4397065 246.62804131 229.81030966 243.98884765 229.1875 239.70703125 C226.30429229 234.49453259 222.79971877 231.53098609 218.0625 228.14453125 C217.36600342 227.63422363 216.66950684 227.12391602 215.9519043 226.59814453 C213.70505067 224.9564914 211.44764518 223.3303267 209.1875 221.70703125 C207.65481871 220.60174164 206.1222668 219.49627262 204.58984375 218.390625 C202.29444214 216.73530137 199.99842097 215.08089734 197.69970703 213.43017578 C193.21635348 210.2031306 188.7960697 206.91297464 184.4375 203.51953125 C179.9171943 200.00883697 175.3411587 196.5999354 170.6875 193.26953125 C170.11161133 192.85614502 169.53572266 192.44275879 168.94238281 192.0168457 C165.77038153 189.76185302 162.55371358 187.66018876 159.1875 185.70703125 C159.5175 186.36703125 159.8475 187.02703125 160.1875 187.70703125 C160.3386763 190.07756077 160.43284285 192.42297617 160.48461914 194.79614258 C160.51409889 195.89179535 160.51409889 195.89179535 160.54417419 197.00958252 C160.60826218 199.43598146 160.66553479 201.86249032 160.72265625 204.2890625 C160.76570199 205.98142922 160.80911868 207.67378654 160.85289001 209.36613464 C160.94395833 212.9246071 161.03190886 216.48313806 161.11743164 220.04174805 C161.22628926 224.56937754 161.34058963 229.09684688 161.45700932 233.62428761 C161.54683544 237.12731858 161.63477824 240.63039475 161.72207451 244.13348961 C161.76362192 245.80019604 161.80548034 247.46689476 161.84767342 249.13358498 C162.08681967 258.66082444 162.2485175 268.17612366 162.1875 277.70703125 C163.20251587 277.68219666 163.20251587 277.68219666 164.23803711 277.65686035 C166.97106528 277.5939571 169.7040108 277.55714807 172.4375 277.51953125 C173.88962891 277.48182617 173.88962891 277.48182617 175.37109375 277.44335938 C176.30566406 277.43369141 177.24023438 277.42402344 178.203125 277.4140625 C179.06196289 277.39835205 179.92080078 277.3826416 180.80566406 277.36645508 C183.67033816 277.77607176 185.03813164 278.82089525 187.1875 280.70703125 C186.3125 287.58203125 186.3125 287.58203125 185.1875 288.70703125 C183.78624663 288.81025323 182.3798873 288.84552555 180.97485352 288.85229492 C179.63324913 288.8618647 179.63324913 288.8618647 178.26454163 288.87162781 C176.80521461 288.87329704 176.80521461 288.87329704 175.31640625 288.875 C174.32374252 288.8783284 173.3310788 288.8816568 172.30833435 288.88508606 C170.2041775 288.89015965 168.10001257 288.89249425 165.99584961 288.89233398 C162.76728117 288.89451955 159.53905473 288.91266824 156.31054688 288.93164062 C154.27083451 288.93457457 152.23112051 288.93655936 150.19140625 288.9375 C149.22054581 288.94468552 148.24968536 288.95187103 147.24940491 288.95927429 C146.35184982 288.95619766 145.45429474 288.95312103 144.52954102 288.94995117 C143.73757828 288.95137619 142.94561554 288.95280121 142.12965393 288.95426941 C140.1875 288.70703125 140.1875 288.70703125 138.1875 286.70703125 C137.63221328 281.48733611 137.63221328 281.48733611 139.3828125 279.02734375 C141.81488478 277.24803546 143.39579896 277.40345848 146.375 277.51953125 C147.27605469 277.54660156 148.17710937 277.57367188 149.10546875 277.6015625 C150.13607422 277.65376953 150.13607422 277.65376953 151.1875 277.70703125 C151.02862808 277.18864685 150.86975616 276.67026245 150.70606995 276.13616943 C150.03983691 273.01533276 149.97656819 270.03205765 149.89038086 266.84082031 C149.87072769 266.15702301 149.85107452 265.47322571 149.83082581 264.76870728 C149.76691545 262.50345435 149.70948413 260.23808932 149.65234375 257.97265625 C149.60922843 256.376762 149.56581184 254.78087586 149.52210999 253.18499756 C149.4311053 249.8258736 149.34320145 246.46668697 149.25756836 243.10742188 C149.14954687 238.8760628 149.03486553 234.6449185 148.91800499 230.41379547 C148.41659512 212.1741045 148.03349237 193.95522452 148.1875 175.70703125 C147.56996353 175.40534531 146.95242706 175.10365936 146.31617737 174.79283142 C144.02926403 173.62631792 142.04647516 172.27494597 139.96484375 170.7734375 C139.17916016 170.20689453 138.39347656 169.64035156 137.58398438 169.05664062 C136.77251953 168.46689453 135.96105469 167.87714844 135.125 167.26953125 C133.90200195 166.39071289 133.90200195 166.39071289 132.65429688 165.49414062 C128.12189857 162.21308647 128.12189857 162.21308647 126.1875 160.70703125 C125.60814697 160.31378662 125.02879395 159.92054199 124.43188477 159.51538086 C122.30339663 156.42224536 122.72876871 153.26941009 123.1875 149.70703125 C124.15798113 145.26662144 125.41143647 140.92361383 126.6875 136.5625 C127.23001432 134.65795383 127.77252504 132.75340663 128.31481934 130.8487978 C129.071664 128.20052567 129.83809467 125.55506641 130.60449219 122.9095459 C131.94989555 118.25950963 133.28228494 113.60573906 134.61132812 108.95100403 C135.31884322 106.47673762 136.03095099 104.00377904 136.74804688 101.53227234 C137.06837891 100.4171376 137.38871094 99.30200287 137.71875 98.15307617 C138.00298828 97.17126877 138.28722656 96.18946136 138.58007812 95.17790222 C139.30686268 92.64556069 139.30686268 92.64556069 139.1875 89.70703125 C138.53628174 89.27672607 137.88506348 88.8464209 137.21411133 88.40307617 C135.1875 86.70703125 135.1875 86.70703125 134.7175293 83.9230957 C134.73211182 82.81667725 134.74669434 81.71025879 134.76171875 80.5703125 C134.77009766 79.35279297 134.77847656 78.13527344 134.78710938 76.88085938 C134.81611328 75.60662109 134.84511719 74.33238281 134.875 73.01953125 C134.88466797 71.76462891 134.89433594 70.50972656 134.90429688 69.21679688 C134.9799469 62.97073578 135.23216432 56.88176189 136.1875 50.70703125 C134.96804687 50.48015625 133.74859375 50.25328125 132.4921875 50.01953125 C126.16403233 48.60613619 120.29387698 46.17154674 114.3125 43.70703125 C113.13099365 43.22371338 111.9494873 42.74039551 110.73217773 42.24243164 C101.167063 38.25993757 91.98977209 33.74567758 82.95727539 28.67749023 C82.37324951 28.35723877 81.78922363 28.0369873 81.1875 27.70703125 C80.30616693 27.18882388 80.30616693 27.18882388 79.40702915 26.66014767 C76.74190027 25.51568057 74.80242966 25.46880794 71.90525818 25.48670959 C70.30061707 25.48908882 70.30061707 25.48908882 68.66355896 25.49151611 C66.91088463 25.50937164 66.91088463 25.50937164 65.12280273 25.52758789 C63.88833405 25.53211472 62.65386536 25.53664154 61.38198853 25.54130554 C58.69999848 25.55227023 56.01830149 25.56682493 53.33639336 25.58726692 C49.09684491 25.61909609 44.85733407 25.63457804 40.61769104 25.64732361 C30.08928773 25.6813977 19.56098768 25.73412398 9.03271484 25.79644775 C0.84657656 25.84487334 -7.3394697 25.88696743 -15.52573055 25.90795606 C-19.74164105 25.91949092 -23.9571702 25.94492441 -28.17294133 25.98070347 C-31.40765716 26.00436727 -34.64240933 26.00858852 -37.87719727 26.01586914 C-39.04767105 26.02979706 -40.21814484 26.04372498 -41.42408752 26.05807495 C-43.0244989 26.05622444 -43.0244989 26.05622444 -44.65724182 26.05433655 C-46.05011335 26.06238107 -46.05011335 26.06238107 -47.4711237 26.07058811 C-49.8125 25.70703125 -49.8125 25.70703125 -51.62152004 24.35793209 C-52.8125 22.70703125 -52.8125 22.70703125 -53.0234375 19.9453125 C-51.18460745 15.02792504 -47.61444799 12.88732814 -43.4375 9.89453125 C-42.65632813 9.30994141 -41.87515625 8.72535156 -41.0703125 8.12304688 C-35.32464484 3.8777462 -35.32464484 3.8777462 -31.8125 2.70703125 C-31.4825 3.69703125 -31.1525 4.68703125 -30.8125 5.70703125 C-31.8025 7.19203125 -31.8025 7.19203125 -32.8125 8.70703125 C-31.08219709 8.42218279 -29.35329286 8.12883187 -27.625 7.83203125 C-26.66207031 7.66960937 -25.69914062 7.5071875 -24.70703125 7.33984375 C-20.58855808 6.43944881 -17.61918632 5.36687415 -14.33129883 2.67749023 C-9.92056971 -0.27672481 -5.15165445 0.03921298 0 0 Z " fill="#3B5E73" transform="translate(81.8125,153.29296875)"/>
<path d="M0 0 C3.49022802 0.00315704 6.9796026 -0.02038843 10.46972656 -0.0456543 C51.63472288 -0.16199959 93.38279229 7.91422446 124.07128906 37.19067383 C131.75043896 45.15747918 136.25001761 52.78935947 139.75878906 63.31567383 C31.18878906 63.31567383 -77.38121094 63.31567383 -189.24121094 63.31567383 C-189.24121094 62.65567383 -189.24121094 61.99567383 -189.24121094 61.31567383 C-187.12221417 59.8845028 -185.01632357 58.58844716 -182.80371094 57.31567383 C-181.79195801 56.72290649 -181.79195801 56.72290649 -180.75976562 56.11816406 C-179.31978704 55.27486626 -177.87816106 54.43437634 -176.43505859 53.59643555 C-174.32297283 52.36340618 -172.2238107 51.11116724 -170.12792969 49.85083008 C-134.25207604 28.33895728 -96.00132131 12.56900147 -54.86621094 4.50317383 C-53.88249512 4.30836426 -52.8987793 4.11355469 -51.88525391 3.9128418 C-34.63385716 0.70452862 -17.5189981 -0.03300397 0 0 Z " fill="#FAFCFC" transform="translate(239.2412109375,79.684326171875)"/>
<path d="M0 0 C0.66 0 1.32 0 2 0 C2 0.66 2 1.32 2 2 C3.093125 2.28875 4.18625 2.5775 5.3125 2.875 C9 4 9 4 12 6 C11.505 4.02 11.505 4.02 11 2 C12.44590953 2.71234536 13.88146102 3.44573338 15.3125 4.1875 C16.11300781 4.59355469 16.91351563 4.99960937 17.73828125 5.41796875 C22.01794703 8.41151736 23.43558006 12.88485291 24.953125 17.71875 C29.66160562 31.84210522 33.89377914 40.67461348 45.93212891 49.39941406 C49.83859389 52.42311943 53.27485819 55.93606066 56.75 59.4375 C57.46881348 60.16050293 58.18762695 60.88350586 58.92822266 61.62841797 C65.1881916 68.02375316 70.72714152 74.78123038 76 82 C76.85806152 83.15105017 77.71613451 84.30209177 78.57421875 85.453125 C84.61163536 93.64183145 90.01404996 102.13451561 95 111 C95.4345752 111.7719873 95.86915039 112.54397461 96.31689453 113.33935547 C103.80029618 126.78289442 109.79147372 140.53131499 115 155 C115.32484375 155.89750977 115.6496875 156.79501953 115.984375 157.71972656 C119.49185902 167.51983817 122.5135857 177.3908092 125 187.5 C125.22010742 188.37865723 125.44021484 189.25731445 125.66699219 190.16259766 C127.49065582 197.96280716 127.49065582 197.96280716 126 202 C124 204 124 204 121.0625 204.4375 C118 204 118 204 116.46875 202.01953125 C114.60838236 198.19489246 113.55532154 194.34234305 112.4375 190.25 C103.72825521 160.0457772 90.12758354 130.722611 68 108 C67.09894531 107.03707031 66.19789063 106.07414062 65.26953125 105.08203125 C49.34680331 88.32393391 28.70443146 76.66038757 7 69 C7.495 67.02 7.495 67.02 8 65 C5.03 65 2.06 65 -1 65 C-1.12375 63.88625 -1.2475 62.7725 -1.375 61.625 C-1.6465813 57.96896323 -1.6465813 57.96896323 -4 56 C-4 55.67 -4 55.34 -4 55 C-5.98 54.34 -7.96 53.68 -10 53 C-10.33 55.64 -10.66 58.28 -11 61 C-10.34 61 -9.68 61 -9 61 C-9.66 62.32 -10.32 63.64 -11 65 C-11.99 65 -12.98 65 -14 65 C-14.08378906 65.75925781 -14.16757812 66.51851563 -14.25390625 67.30078125 C-18.47533262 88.23109941 -29.44616566 109.6021664 -43 126 C-43.82177734 127.0828125 -43.82177734 127.0828125 -44.66015625 128.1875 C-49.96169771 134.856761 -58.52591943 142.18469608 -67 144 C-66.78778809 143.35530762 -66.57557617 142.71061523 -66.35693359 142.04638672 C-64.10160946 134.62773118 -63.53012879 127.85217476 -63.625 120.125 C-63.63007568 118.98401855 -63.63515137 117.84303711 -63.64038086 116.66748047 C-63.74671631 109.54554923 -64.30403258 103.14090937 -66.44140625 96.3203125 C-67.63313565 91.3700519 -64.91573326 87.92851303 -62.44921875 83.8046875 C-57.22466449 73.69355553 -54.98437409 62.98573361 -52.57543945 51.95776367 C-45.3827329 19.24301475 -45.3827329 19.24301475 -32.046875 10.21875 C-22.67863004 4.64071102 -12.55557379 5.01080372 -2 7 C-2 6.01 -2 5.02 -2 4 C-1.01 4 -0.02 4 1 4 C0.505 2.02 0.505 2.02 0 0 Z " fill="#376078" transform="translate(461,59)"/>
<path d="M0 0 C77.22 0 154.44 0 234 0 C231.2958654 5.40826921 227.35123949 8.86738032 223 13 C222.37996094 13.59039062 221.75992188 14.18078125 221.12109375 14.7890625 C207.83562245 26.89806658 192.74091546 35.68638552 176 42 C175.0615625 42.38285156 174.123125 42.76570313 173.15625 43.16015625 C152.62714434 51.29141346 128.46016439 51.12200036 107 47 C105.87464844 46.79375 104.74929687 46.5875 103.58984375 46.375 C79.27828687 41.55106087 56.9858409 32.21992716 35 21 C34.23558594 20.61150879 33.47117188 20.22301758 32.68359375 19.82275391 C23.87010829 15.32707774 15.21157978 10.67365917 6.8125 5.4375 C5.77802734 4.79288818 5.77802734 4.79288818 4.72265625 4.13525391 C3.12796358 3.12168504 1.56050735 2.06544985 0 1 C0 0.67 0 0.34 0 0 Z " fill="#A3A5A7" transform="translate(141,154)"/>
<path d="M0 0 C2.92824652 0.97608217 4.61426621 2.10786631 7 4 C5.52228022 12.11274659 3.48043845 20.03597442 1.33984375 27.99609375 C0.98612739 29.31976346 0.63266214 30.64350029 0.2794342 31.96730042 C-0.45577801 34.72016642 -1.19299564 37.4724839 -1.93188477 40.22436523 C-2.87842792 43.74970851 -3.82139474 47.27599556 -4.76307011 50.80264187 C-5.66503771 54.17995453 -6.56878802 57.55678935 -7.47265625 60.93359375 C-7.81120132 62.19916611 -8.1497464 63.46473846 -8.49855042 64.7686615 C-8.81235153 65.93740311 -9.12615265 67.10614471 -9.44946289 68.31030273 C-9.72544815 69.33937241 -10.00143341 70.36844208 -10.28578186 71.42869568 C-10.80579716 73.30083742 -11.38556281 75.15668842 -12 77 C-11.32839844 77.2165625 -10.65679687 77.433125 -9.96484375 77.65625 C-6.05594606 79.42787162 -2.94265577 81.88078751 0.4375 84.5 C1.87267477 85.59509219 3.30889088 86.68882086 4.74609375 87.78125 C5.46265137 88.32652344 6.17920898 88.87179687 6.91748047 89.43359375 C9.90459102 91.68040516 12.94631913 93.84500528 16 96 C23.1489072 101.06188917 30.14503698 106.31874366 37.13525391 111.59667969 C38.84936957 112.88664261 40.56925644 114.16821516 42.29296875 115.4453125 C65.73230791 132.85046215 65.73230791 132.85046215 69 142 C70.26146569 152.25626454 68.20560341 159.48014553 62 167.625 C60 169 60 169 57.4375 169.5 C55 169 55 169 53.125 167.375 C51.56149189 164.07426066 51.97331354 162.49073397 53 159 C53.66297052 157.83980158 54.35200427 156.6942182 55.0625 155.5625 C57.2522065 151.92101006 57.62280966 149.2818164 57 145 C54.11679229 139.78750134 50.61221877 136.82395484 45.875 133.4375 C44.83025513 132.67203857 44.83025513 132.67203857 43.7644043 131.89111328 C41.51755067 130.24946015 39.26014518 128.62329545 37 127 C35.46731871 125.89471039 33.9347668 124.78924137 32.40234375 123.68359375 C30.10694214 122.02827012 27.81092097 120.37386609 25.51220703 118.72314453 C21.02885348 115.49609935 16.6085697 112.20594339 12.25 108.8125 C7.7296943 105.30180572 3.1536587 101.89290415 -1.5 98.5625 C-2.07588867 98.14911377 -2.65177734 97.73572754 -3.24511719 97.30981445 C-6.41711847 95.05482177 -9.63378642 92.95315751 -13 91 C-12.67 91.66 -12.34 92.32 -12 93 C-11.8488237 95.37052952 -11.75465715 97.71594492 -11.70288086 100.08911133 C-11.68322769 100.81954651 -11.66357452 101.54998169 -11.64332581 102.30255127 C-11.57923782 104.72895021 -11.52196521 107.15545907 -11.46484375 109.58203125 C-11.42179801 111.27439797 -11.37838132 112.96675529 -11.33460999 114.65910339 C-11.24354167 118.21757585 -11.15559114 121.77610681 -11.07006836 125.3347168 C-10.96121074 129.86234629 -10.84691037 134.38981563 -10.73049068 138.91725636 C-10.64066456 142.42028733 -10.55272176 145.9233635 -10.46542549 149.42645836 C-10.42387808 151.09316479 -10.38201966 152.75986351 -10.33982658 154.42655373 C-10.10068033 163.95379319 -9.9389825 173.46909241 -10 183 C-9.32332275 182.9834436 -8.64664551 182.96688721 -7.94946289 182.9498291 C-5.21643472 182.88692585 -2.4834892 182.85011682 0.25 182.8125 C1.21808594 182.78736328 2.18617188 182.76222656 3.18359375 182.73632812 C4.58544922 182.72182617 4.58544922 182.72182617 6.015625 182.70703125 C6.87446289 182.6913208 7.73330078 182.67561035 8.61816406 182.65942383 C11.48283816 183.06904051 12.85063164 184.113864 15 186 C14.125 192.875 14.125 192.875 13 194 C11.59874663 194.10322198 10.1923873 194.1384943 8.78735352 194.14526367 C7.89295059 194.15164352 6.99854767 194.15802338 6.07704163 194.16459656 C5.10415695 194.16570938 4.13127228 194.1668222 3.12890625 194.16796875 C1.63991066 194.17296135 1.63991066 194.17296135 0.12083435 194.17805481 C-1.9833225 194.1831284 -4.08748743 194.185463 -6.19165039 194.18530273 C-9.42021883 194.1874883 -12.64844527 194.20563699 -15.87695312 194.22460938 C-17.91666549 194.22754332 -19.95637949 194.22952811 -21.99609375 194.23046875 C-22.96695419 194.23765427 -23.93781464 194.24483978 -24.93809509 194.25224304 C-25.83565018 194.24916641 -26.73320526 194.24608978 -27.65795898 194.24291992 C-28.44992172 194.24434494 -29.24188446 194.24576996 -30.05784607 194.24723816 C-32 194 -32 194 -34 192 C-34.55528672 186.78030486 -34.55528672 186.78030486 -32.8046875 184.3203125 C-30.37261522 182.54100421 -28.79170104 182.69642723 -25.8125 182.8125 C-24.91144531 182.83957031 -24.01039063 182.86664063 -23.08203125 182.89453125 C-22.39496094 182.92933594 -21.70789063 182.96414063 -21 183 C-21.15887192 182.4816156 -21.31774384 181.9632312 -21.48143005 181.42913818 C-22.14766309 178.30830151 -22.21093181 175.3250264 -22.29711914 172.13378906 C-22.31677231 171.44999176 -22.33642548 170.76619446 -22.35667419 170.06167603 C-22.42058455 167.7964231 -22.47801587 165.53105807 -22.53515625 163.265625 C-22.57827157 161.66973075 -22.62168816 160.07384461 -22.66539001 158.47796631 C-22.7563947 155.11884235 -22.84429855 151.75965572 -22.92993164 148.40039062 C-23.03795313 144.16903155 -23.15263447 139.93788725 -23.26949501 135.70676422 C-23.77090488 117.46707325 -24.15400763 99.24819327 -24 81 C-24.61753647 80.69831406 -25.23507294 80.39662811 -25.87132263 80.08580017 C-28.15823597 78.91928667 -30.14102484 77.56791472 -32.22265625 76.06640625 C-33.00833984 75.49986328 -33.79402344 74.93332031 -34.60351562 74.34960938 C-35.41498047 73.75986328 -36.22644531 73.17011719 -37.0625 72.5625 C-38.28549805 71.68368164 -38.28549805 71.68368164 -39.53320312 70.78710938 C-44.06560143 67.50605522 -44.06560143 67.50605522 -46 66 C-46.57935303 65.60675537 -47.15870605 65.21351074 -47.75561523 64.80834961 C-49.86859816 61.73774641 -49.43296417 58.54115702 -49 55 C-48.16785744 51.03652767 -47.06867092 47.16862704 -45.9375 43.28125 C-45.62675537 42.18276733 -45.31601074 41.08428467 -44.99584961 39.95251465 C-44.00700088 36.46547603 -43.00374059 32.98277776 -42 29.5 C-41.32456328 27.12787661 -40.65007374 24.7554833 -39.9765625 22.3828125 C-38.32866191 16.58537163 -36.6689287 10.79142025 -35 5 C-34.01 5 -33.02 5 -32 5 C-32 5.66 -32 6.32 -32 7 C-30.68 7.33 -29.36 7.66 -28 8 C-27.375 10.3125 -27.375 10.3125 -27 13 C-27.99 14.485 -27.99 14.485 -29 16 C-28.67 16.99 -28.34 17.98 -28 19 C-28.27673166 20.67699388 -28.61673583 22.34410222 -29 24 C-29.25104249 25.70818045 -29.50095156 27.41652769 -29.75 29.125 C-30.81099643 35.72127239 -32.5560174 42.09020081 -34.41113281 48.50048828 C-34.62995117 49.28407715 -34.84876953 50.06766602 -35.07421875 50.875 C-35.27619873 51.57367188 -35.47817871 52.27234375 -35.6862793 52.9921875 C-36.05543896 55.35480937 -35.85847086 56.77177582 -35 59 C-33.00484099 60.72894698 -31.08570336 62.24257501 -28.9375 63.75 C-28.08575195 64.36681641 -28.08575195 64.36681641 -27.21679688 64.99609375 C-25.81805343 66.00695036 -24.40990625 67.00477206 -23 68 C-21.22646054 64.77160726 -20.24543924 61.59388157 -19.30419922 58.03808594 C-18.98401825 56.83714294 -18.66383728 55.63619995 -18.33395386 54.39886475 C-17.99077142 53.09405946 -17.64768487 51.78922895 -17.3046875 50.484375 C-16.94920291 49.14477598 -16.59333191 47.80527945 -16.23709106 46.46588135 C-15.30276004 42.94880827 -14.37367212 39.43037088 -13.44567871 35.91162109 C-12.49690375 32.31784421 -11.54316365 28.72538588 -10.58984375 25.1328125 C-8.72170763 18.0898209 -6.85911 11.04538022 -5 4 C-4.505 5.485 -4.505 5.485 -4 7 C-3.01 6.67 -2.02 6.34 -1 6 C-0.67 4.02 -0.34 2.04 0 0 Z " fill="#3D5F74" transform="translate(254,248)"/>
<path d="M0 0 C0.495 0.99 0.495 0.99 1 2 C-0.14339844 2.49371094 -1.28679687 2.98742187 -2.46484375 3.49609375 C-3.955783 4.14310512 -5.4466655 4.7902473 -6.9375 5.4375 C-7.69224609 5.76298828 -8.44699219 6.08847656 -9.22460938 6.42382812 C-12.87028689 7.80102606 -12.87028689 7.80102606 -16 10 C-16.10135599 12.69785797 -16.13861344 15.36477074 -16.125 18.0625 C-16.12886719 18.80177734 -16.13273437 19.54105469 -16.13671875 20.30273438 C-16.13035371 23.94035521 -15.99323667 27.48190384 -15.515625 31.08984375 C-13.79490691 44.13862259 -15.28911486 54.77413141 -20 67 C-20.32709961 67.85964355 -20.65419922 68.71928711 -20.99121094 69.60498047 C-27.48076439 86.48437454 -34.55428948 101.85502685 -46 116 C-46.55042969 116.72703125 -47.10085938 117.4540625 -47.66796875 118.203125 C-52.97742582 124.86288843 -61.52778296 132.18509529 -70 134 C-69.78778809 133.35530762 -69.57557617 132.71061523 -69.35693359 132.04638672 C-67.10160946 124.62773118 -66.53012879 117.85217476 -66.625 110.125 C-66.63007568 108.98401855 -66.63515137 107.84303711 -66.64038086 106.66748047 C-66.74671631 99.54554923 -67.30403258 93.14090937 -69.44140625 86.3203125 C-70.63313565 81.3700519 -67.91573326 77.92851303 -65.44921875 73.8046875 C-60.22466449 63.69355553 -57.98437409 52.98573361 -55.57543945 41.95776367 C-48.3827329 9.24301475 -48.3827329 9.24301475 -35.046875 0.21875 C-24.25172259 -6.208898 -11.09961784 -5.90542774 0 0 Z " fill="#F9FBFB" transform="translate(464,69)"/>
<path d="M0 0 C77.22 0 154.44 0 234 0 C231.18153919 5.63692163 228.43255022 9.63550144 223 13 C216.69767891 14.70700102 209.92662938 14.22069376 203.45800781 14.14868164 C201.467923 14.15925007 199.47785545 14.17365928 197.48782349 14.19160461 C192.09868883 14.22827768 186.71113868 14.20838413 181.32203007 14.17599797 C175.66930898 14.14941698 170.01670064 14.16770329 164.36395264 14.17906189 C154.86803396 14.1908517 145.37275056 14.16543925 135.87695312 14.1184082 C124.9220013 14.0646505 113.96835556 14.07162331 103.01337171 14.1109286 C92.45145082 14.14723029 81.89001518 14.13818183 71.32808685 14.10946465 C66.84502378 14.0981799 62.36241005 14.10293033 57.87937164 14.12092781 C52.58953834 14.14025542 47.3012693 14.11974939 42.0116539 14.06950188 C40.07884998 14.05740485 38.1459055 14.05864644 36.21313095 14.07476807 C23.68520748 14.16848741 16.03390553 12.74759451 6 5 C4.88771402 4.25969399 3.77062466 3.52655019 2.6486702 2.80098057 C1.77460903 2.20665698 0.90054787 1.61233339 0 1 C0 0.67 0 0.34 0 0 Z " fill="#F9FBFC" transform="translate(141,154)"/>
<path d="M0 0 C6.51389681 0 9.62165008 2.2468734 14.3125 6.625 C15.19550781 7.44226563 16.07851563 8.25953125 16.98828125 9.1015625 C17.98408203 10.04128906 17.98408203 10.04128906 19 11 C18.67 10.01 18.34 9.02 18 8 C17.65179959 6.33637583 17.31595508 4.67004829 17 3 C18.65 3.66 20.3 4.32 22 5 C22 4.01 22 3.02 22 2 C22.33 1.34 22.66 0.68 23 0 C23.33 0.99 23.66 1.98 24 3 C25.39798828 3.44279297 25.39798828 3.44279297 26.82421875 3.89453125 C39.60899974 8.34483017 50.86168872 37.43493438 56.66992188 49.18359375 C60.63388095 57.57717522 63.85814251 66.27228242 67 75 C67.48726562 76.34626465 67.48726562 76.34626465 67.984375 77.71972656 C71.49185902 87.51983817 74.5135857 97.3908092 77 107.5 C77.22010742 108.37865723 77.44021484 109.25731445 77.66699219 110.16259766 C79.49065582 117.96280716 79.49065582 117.96280716 78 122 C76 124 76 124 73.0625 124.4375 C70 124 70 124 68.46875 122.01953125 C66.60838236 118.19489246 65.55532154 114.34234305 64.4375 110.25 C55.72825521 80.0457772 42.12758354 50.722611 20 28 C19.09894531 27.03707031 18.19789063 26.07414062 17.26953125 25.08203125 C10.99763742 18.48804451 4.36138934 13.07183462 -3.1640625 7.9609375 C-6 6 -6 6 -8 4 C-7.34 4 -6.68 4 -6 4 C-6 3.34 -6 2.68 -6 2 C-5.34 2 -4.68 2 -4 2 C-3.67 2.66 -3.34 3.32 -3 4 C-2.5875 3.34 -2.175 2.68 -1.75 2 C-1.1725 1.34 -0.595 0.68 0 0 Z " fill="#3A5F75" transform="translate(509,139)"/>
<path d="M0 0 C0.495 0.99 0.495 0.99 1 2 C3.7696959 2.72886734 6.12862585 3 9 3 C8.67 3.66 8.34 4.32 8 5 C8.99 5.99 8.99 5.99 10 7 C11.066855 10.00659136 11.04940314 10.85179059 10 14 C10.556875 13.814375 11.11375 13.62875 11.6875 13.4375 C14.399133 12.92448835 16.34371039 13.3359276 19 14 C18.67 14.99 18.34 15.98 18 17 C13.545 16.01 13.545 16.01 9 15 C8.67 16.381875 8.34 17.76375 8 19.1875 C-0.64206504 50.43496664 -16.39521039 83.53172379 -45.1875 100.57421875 C-47.52579537 101.7596046 -49.43966015 102.53840027 -52 103 C-52 102.34 -52 101.68 -52 101 C-51.34 101 -50.68 101 -50 101 C-50.33 99.68 -50.66 98.36 -51 97 C-51.99 97 -52.98 97 -54 97 C-55.6875 95.5 -55.6875 95.5 -57 94 C-56.505 93.01 -56.505 93.01 -56 92 C-55.11699219 91.71640625 -54.23398437 91.4328125 -53.32421875 91.140625 C-36.73193919 85.44738689 -25.64427941 67.0836071 -18.11035156 52.2734375 C-12.06858955 39.90296962 -7.02341686 27.16203205 -3 14 C-2.34 14 -1.68 14 -1 14 C-0.67 13.34 -0.34 12.68 0 12 C0.66 11.34 1.32 10.68 2 10 C1.34 10 0.68 10 0 10 C0 6.7 0 3.4 0 0 Z " fill="#3C5E74" transform="translate(450,110)"/>
<path d="M0 0 C0.66 0 1.32 0 2 0 C4.4756519 11.1211217 5.13549365 26.48461316 0.3359375 36.96875 C-2.99141964 42.02788952 -7.22547813 45.21014119 -13 47 C-15.75231459 47.1978408 -18.37537097 47.28271629 -21.125 47.25 C-21.92526611 47.24613281 -22.72553223 47.24226563 -23.55004883 47.23828125 C-35.3912138 47.07831054 -47.20545639 45.99467274 -59 45 C-59 44.34 -59 43.68 -59 43 C-57.98421875 42.5875 -56.9684375 42.175 -55.921875 41.75 C-40.657606 35.40524713 -27.78879709 26.46242964 -15.62890625 15.28515625 C-14 14 -14 14 -12 14 C-12 13.34 -12 12.68 -12 12 C-10.38025441 10.28769752 -8.7041054 8.62836738 -7 7 C-6.113125 6.113125 -5.22625 5.22625 -4.3125 4.3125 C-2.875 2.875 -1.4375 1.4375 0 0 Z " fill="#A1A4A8" transform="translate(384,161)"/>
<path d="M0 0 C1.32355009 2.41837608 2.2385755 4.48978179 3.125 7.0625 C3.38087891 7.74554199 3.63675781 8.42858398 3.90039062 9.13232422 C4.9439826 11.93547632 5.91964887 14.75031073 6.8359375 17.59765625 C8.48983765 22.64691611 10.71519626 24.91494131 15 28 C18.59353076 30.80470694 21.81561096 33.73600123 25 37 C28.45339659 40.54974867 28.45339659 40.54974867 32.3125 43.625 C32.869375 44.07875 33.42625 44.5325 34 45 C34 45.99 34 46.98 34 48 C34.598125 48.268125 35.19625 48.53625 35.8125 48.8125 C37.99847854 49.99917406 39.41332594 51.09599113 41 53 C41 53.66 41 54.32 41 55 C41.66 55 42.32 55 43 55 C44.83984375 57.01171875 44.83984375 57.01171875 46.9375 59.6875 C47.97197266 60.99267578 47.97197266 60.99267578 49.02734375 62.32421875 C50.85904704 64.80880639 52.46283871 67.32562848 54 70 C50.67660543 68.54040103 48.3857168 66.66678037 45.75 64.1875 C42.19024119 60.93471874 38.63993156 58.35286633 34.43359375 56.0078125 C33.96050781 55.67523438 33.48742187 55.34265625 33 55 C33 54.34 33 53.68 33 53 C32.18015625 52.76023438 31.3603125 52.52046875 30.515625 52.2734375 C26.34387235 50.76233599 22.62997822 48.75749389 18.75 46.625 C7.53106172 40.59477592 -3.84277931 36.68034969 -16 33 C-17.04518445 23.31337984 -17.10371911 13.72654773 -17 4 C-15.11157486 3.12957757 -13.21388098 2.27924526 -11.3125 1.4375 C-10.25675781 0.96183594 -9.20101563 0.48617187 -8.11328125 -0.00390625 C-4.71208164 -1.09211942 -3.23586306 -1.53827106 0 0 Z " fill="#58B1C9" transform="translate(476,81)"/>
<path d="M0 0 C1.33333333 2 2.66666667 4 4 6 C4.99 6.33 5.98 6.66 7 7 C6.33771506 14.5360622 4.37895726 21.6196904 2.40234375 28.90625 C2.04458457 30.23990642 1.68729754 31.57368957 1.33045959 32.90759277 C0.39644868 36.39401644 -0.54390799 39.87869684 -1.48565674 43.36303711 C-2.44809868 46.92848176 -3.40444615 50.49555998 -4.36132812 54.0625 C-6.23496925 61.04326743 -8.11532624 68.02220209 -10 75 C-14.00848784 75 -16.05994668 73.07245132 -19.125 70.75 C-19.67542969 70.35425781 -20.22585937 69.95851563 -20.79296875 69.55078125 C-24.75408392 66.58237799 -24.75408392 66.58237799 -25.74926758 64.22558594 C-26.08817857 61.21729712 -25.42788042 58.95051883 -24.62890625 56.03125 C-24.30535156 54.83258301 -23.98179687 53.63391602 -23.6484375 52.39892578 C-23.28676827 51.09919757 -22.92478189 49.79955757 -22.5625 48.5 C-22.19855033 47.16798844 -21.83527737 45.83579182 -21.47265625 44.50341797 C-17.77305929 30.96778865 -13.90876912 17.47645558 -10 4 C-8.88496094 3.86722656 -7.76992187 3.73445312 -6.62109375 3.59765625 C-3.0840529 3.01387281 -2.05937341 2.78621109 0 0 Z " fill="#FBFDFD" transform="translate(243,241)"/>
<path d="M0 0 C3.28367687 0.04823563 6.55626201 0.00034854 9.83959961 -0.05712891 C23.41549233 -0.09496089 31.2267989 1.69414694 41.85327148 10.17333984 C43.82775379 11.22282525 45.82162644 12.23930642 47.85327148 13.17333984 C47.85327148 13.83333984 47.85327148 14.49333984 47.85327148 15.17333984 C19.14327148 15.17333984 -9.56672852 15.17333984 -39.14672852 15.17333984 C-26.24810702 2.27471835 -18.14341986 -0.31699845 0 0 Z " fill="#F8FCFC" transform="translate(92.146728515625,152.82666015625)"/>
<path d="M0 0 C5.65841584 0.62871287 5.65841584 0.62871287 7.4375 2.5625 C8.2109375 3.2740625 8.2109375 3.2740625 9 4 C10.546875 3.9071875 10.546875 3.9071875 12.125 3.8125 C21.96302606 4.28853352 30.37582752 14.24507191 37 21 C44.03446772 28.78858152 49.51513252 37.53194643 54 47 C54.26554688 46.38511719 54.53109375 45.77023438 54.8046875 45.13671875 C55.15789062 44.32847656 55.51109375 43.52023438 55.875 42.6875 C56.22304688 41.88699219 56.57109375 41.08648437 56.9296875 40.26171875 C58 38 58 38 60 35 C60 35.66 60 36.32 60 37 C60.99 37.33 61.98 37.66 63 38 C63 39.32 63 40.64 63 42 C62.01 42 61.02 42 60 42 C60 43.98 60 45.96 60 48 C59.34 48 58.68 48 58 48 C57.67 48.99 57.34 49.98 57 51 C54.36 50.67 51.72 50.34 49 50 C48.34 51.65 47.68 53.3 47 55 C-13.06 55 -73.12 55 -135 55 C-135 54.67 -135 54.34 -135 54 C-75.93 54 -16.86 54 44 54 C36.11874898 38.23749796 27.53108683 26.09653172 13 16 C13.33 14.68 13.66 13.36 14 12 C13.34 12 12.68 12 12 12 C12 11.34 12 10.68 12 10 C11.13375 9.896875 10.2675 9.79375 9.375 9.6875 C5.83316877 8.96601586 3.15687958 7.72876739 0 6 C0 5.34 0 4.68 0 4 C0.66 4 1.32 4 2 4 C2 3.34 2 2.68 2 2 C1.34 2 0.68 2 0 2 C0 1.34 0 0.68 0 0 Z " fill="#3D5E72" transform="translate(335,89)"/>
<path d="M0 0 C2.359375 0.2265625 2.359375 0.2265625 5 1 C8.93858622 6.62986148 10.62082641 15.21606055 10 22 C8.48283702 24.1797215 7.53344758 24.86638311 4.95703125 25.51171875 C2.97135417 25.67447917 0.98567708 25.83723958 -1 26 C-1.12852505 17.27457699 -0.79645684 8.68991301 0 0 Z M-1 26 C-1 26.66 -1 27.32 -1 28 C-0.01 28 0.98 28 2 28 C2 28.66 2 29.32 2 30 C2.99 30 3.98 30 5 30 C5.2475 30.61875 5.495 31.2375 5.75 31.875 C7.20628639 34.35068687 8.37812506 34.95125002 11 36 C11 36.33 11 36.66 11 37 C8.69 37 6.38 37 4 37 C3.90847656 37.88816406 3.81695312 38.77632812 3.72265625 39.69140625 C2.88236061 45.57347571 1.07372485 51.23825344 -0.5625 56.9375 C-0.89185547 58.09830078 -1.22121094 59.25910156 -1.56054688 60.45507812 C-2.3696596 63.30456206 -3.18291987 66.15279247 -4 69 C-4.33 69 -4.66 69 -5 69 C-5.07485655 65.10745958 -4.93973036 61.75892143 -4 58 C-4.33 57.01 -4.66 56.02 -5 55 C-4.34 54.34 -3.68 53.68 -3 53 C-3.32041397 50.39719432 -3.32041397 50.39719432 -4 48 C-4.99 47.67 -5.98 47.34 -7 47 C-7 46.34 -7 45.68 -7 45 C-7.66 45 -8.32 45 -9 45 C-8.91276622 43.22825181 -8.80458345 41.45752623 -8.6875 39.6875 C-8.62949219 38.70136719 -8.57148438 37.71523437 -8.51171875 36.69921875 C-7.95377187 33.75615543 -7.31459868 32.81817001 -5 31 C-5.66 31 -6.32 31 -7 31 C-6.625 29.0625 -6.625 29.0625 -6 27 C-4 26 -4 26 -1 26 Z " fill="#3E5F75" transform="translate(229,208)"/>
<path d="M0 0 C16.335 0.99 16.335 0.99 33 2 C27 9 27 9 24.5625 11.1875 C21.1976075 14.8806747 19.2874649 19.05967656 17.13671875 23.55078125 C15 26 15 26 12.98681641 26.35302734 C10.76953125 26.35546875 10.76953125 26.35546875 7 26 C5.82898756 22.04293896 4.66392728 18.08415032 3.5 14.125 C3.16613281 12.99707031 2.83226562 11.86914062 2.48828125 10.70703125 C2.17246094 9.63066406 1.85664063 8.55429688 1.53125 7.4453125 C1.23798828 6.45031738 0.94472656 5.45532227 0.64257812 4.43017578 C0 2 0 2 0 0 Z " fill="#A4A5AA" transform="translate(247,212)"/>
<path d="M0 0 C1.65 0.66 3.3 1.32 5 2 C5.33 1.34 5.66 0.68 6 0 C8.31 4.29 10.62 8.58 13 13 C13.928125 10.8653125 13.928125 10.8653125 14.875 8.6875 C16.09582189 5.87960965 17.28982274 3.5652659 19 1 C19 1.66 19 2.32 19 3 C19.99 3.33 20.98 3.66 22 4 C22 5.32 22 6.64 22 8 C21.01 8 20.02 8 19 8 C19 9.98 19 11.96 19 14 C18.34 14 17.68 14 17 14 C16.67 14.99 16.34 15.98 16 17 C13.36 16.67 10.72 16.34 8 16 C7.34 17.65 6.68 19.3 6 21 C-54.06 21 -114.12 21 -176 21 C-176 20.67 -176 20.34 -176 20 C-116.93 20 -57.86 20 3 20 C1.02 16.04 -0.96 12.08 -3 8 C-3.99 6.02 -3.99 6.02 -5 4 C-4.34 4 -3.68 4 -3 4 C-2.34 3.01 -1.68 2.02 -1 1 C-0.67 0.67 -0.34 0.34 0 0 Z " fill="#557080" transform="translate(376,123)"/>
<path d="M0 0 C3.79160297 -0.05786668 7.58309311 -0.09355054 11.375 -0.125 C12.45523438 -0.14175781 13.53546875 -0.15851563 14.6484375 -0.17578125 C15.6796875 -0.18222656 16.7109375 -0.18867188 17.7734375 -0.1953125 C19.20308838 -0.21102295 19.20308838 -0.21102295 20.66162109 -0.22705078 C23 0 23 0 25 2 C24.42307692 8.57692308 24.42307692 8.57692308 23 10 C21.58774954 10.0928726 20.17091066 10.11746772 18.75561523 10.11352539 C17.85475693 10.11344986 16.95389862 10.11337433 16.02574158 10.11329651 C15.04658279 10.10813522 14.06742401 10.10297394 13.05859375 10.09765625 C12.06118668 10.0962413 11.0637796 10.09482635 10.03614807 10.09336853 C6.83656876 10.08775114 3.63705831 10.07519571 0.4375 10.0625 C-1.72591045 10.05748724 -3.88932199 10.05292395 -6.05273438 10.04882812 C-11.36851325 10.03777607 -16.68425171 10.02102104 -22 10 C-22 9.34 -22 8.68 -22 8 C-11.605 7.505 -11.605 7.505 -1 7 C-0.34 5.68 0.32 4.36 1 3 C1.66 3 2.32 3 3 3 C3 2.34 3 1.68 3 1 C2.01 0.67 1.02 0.34 0 0 Z " fill="#37596E" transform="translate(244,432)"/>
<path d="M0 0 C77.22 0 154.44 0 234 0 C233.67 0.66 233.34 1.32 233 2 C158.09 2 83.18 2 6 2 C6.66 2.33 7.32 2.66 8 3 C8 3.66 8 4.32 8 5 C4.35446828 3.7191375 2.83328987 2.83328987 0 0 Z " fill="#AEC0CA" transform="translate(141,154)"/>
<path d="M0 0 C0.97175171 -0.00137466 1.94350342 -0.00274933 2.94470215 -0.00416565 C4.5415258 0.00122726 4.5415258 0.00122726 6.17060852 0.00672913 C7.29270721 0.0065831 8.41480591 0.00643707 9.57090759 0.00628662 C13.2881614 0.00698454 17.0053654 0.01477134 20.72261047 0.02259827 C23.29665093 0.02446287 25.87069173 0.02588658 28.44473267 0.02688599 C34.532647 0.03031694 40.62054072 0.03820233 46.70844728 0.04823548 C53.63945866 0.0594103 60.5704709 0.06491052 67.50148904 0.06993091 C81.75879958 0.0803853 96.01609501 0.09797622 110.27339172 0.12025452 C110.27339172 0.78025452 110.27339172 1.44025452 110.27339172 2.12025452 C111.26339172 2.61525452 111.26339172 2.61525452 112.27339172 3.12025452 C72.67339172 3.12025452 33.07339172 3.12025452 -7.72660828 3.12025452 C-7.72660828 2.46025452 -7.72660828 1.80025452 -7.72660828 1.12025452 C-4.82787509 0.15401012 -3.01233235 -0.00328499 0 0 Z " fill="#3B5667" transform="translate(263.7266082763672,150.87974548339844)"/>
<path d="M0 0 C5.91698243 0.87658999 10.16253612 5.72396882 14 10 C14 10.99 14 11.98 14 13 C14.598125 13.268125 15.19625 13.53625 15.8125 13.8125 C17.99847854 14.99917406 19.41332594 16.09599113 21 18 C21 18.66 21 19.32 21 20 C21.66 20 22.32 20 23 20 C24.83984375 22.01171875 24.83984375 22.01171875 26.9375 24.6875 C27.62714844 25.55761719 28.31679688 26.42773438 29.02734375 27.32421875 C30.85904704 29.80880639 32.46283871 32.32562848 34 35 C30.67660543 33.54040103 28.3857168 31.66678037 25.75 29.1875 C22.19024119 25.93471874 18.63993156 23.35286633 14.43359375 21.0078125 C13.96050781 20.67523438 13.48742187 20.34265625 13 20 C13 19.34 13 18.68 13 18 C12.15179688 17.74476563 11.30359375 17.48953125 10.4296875 17.2265625 C6.76247907 15.91505516 3.53425443 14.25356877 0.125 12.375 C-1.02742188 11.74335937 -2.17984375 11.11171875 -3.3671875 10.4609375 C-4.67042969 9.73777344 -4.67042969 9.73777344 -6 9 C-6 8.67 -6 8.34 -6 8 C-3.36 8 -0.72 8 2 8 C1.67 7.01 1.34 6.02 1 5 C1.66 5 2.32 5 3 5 C3.33 6.32 3.66 7.64 4 9 C4.66 8.34 5.32 7.68 6 7 C6 6.34 6 5.68 6 5 C4.68 4.34 3.36 3.68 2 3 C2 2.34 2 1.68 2 1 C1.34 0.67 0.68 0.34 0 0 Z " fill="#58AAC3" transform="translate(496,116)"/>
<path d="M0 0 C2.359375 0.2265625 2.359375 0.2265625 5 1 C8.93858622 6.62986148 10.62082641 15.21606055 10 22 C8.765625 23.8046875 8.765625 23.8046875 7 25 C4.27492202 25.39078556 1.76878044 25.13616953 -1 25 C-1.13605482 16.60995285 -0.75475351 8.35619957 0 0 Z " fill="#9BA3AA" transform="translate(229,208)"/>
<path d="M0 0 C-0.33 1.65 -0.66 3.3 -1 5 C2.98116699 6.32705566 6.8168215 6.17779297 10.96948242 6.20532227 C12.34539299 6.22017166 12.34539299 6.22017166 13.74909973 6.23532104 C16.78452971 6.2669378 19.81997535 6.29169423 22.85546875 6.31640625 C24.95868845 6.33697562 27.06190402 6.35797209 29.16511536 6.37937927 C34.70365044 6.43460167 40.24222284 6.48401025 45.78082275 6.53222656 C51.43138962 6.58244033 57.08190223 6.63812705 62.73242188 6.69335938 C73.82156824 6.80094302 84.9107617 6.90238758 96 7 C96 7.33 96 7.66 96 8 C60.36 8 24.72 8 -12 8 C-4 0 -4 0 0 0 Z " fill="#F0FDFF" transform="translate(63,134)"/>
<path d="M0 0 C7.36120705 0.42952717 12.68787161 1.6591303 19.1875 5.1875 C21.2772927 6.27270394 21.2772927 6.27270394 25 6 C25 6.66 25 7.32 25 8 C25.99 7.67 26.98 7.34 28 7 C28.33 6.34 28.66 5.68 29 5 C34.75 5.75 34.75 5.75 37 8 C37 8.99 37 9.98 37 11 C34.8125 12.75 34.8125 12.75 32 14 C28.55311478 13.57067141 25.74076676 12.56203932 22.63671875 11.0390625 C21.83169922 10.64976562 21.02667969 10.26046875 20.19726562 9.859375 C19.36904297 9.45203125 18.54082031 9.0446875 17.6875 8.625 C11.8698738 5.77817423 6.10355185 3.1773315 0 1 C0 0.67 0 0.34 0 0 Z " fill="#3B5F74" transform="translate(468,127)"/>
<path d="M0 0 C0 0.99 0 1.98 0 3 C-1.97946592 4.36363208 -3.9819245 5.69418644 -6 7 C-7.83300909 9.10575643 -7.83300909 9.10575643 -9 11 C-8.34 11.639375 -7.68 12.27875 -7 12.9375 C-5 15 -5 15 -5 16 C-12.26 15.67 -19.52 15.34 -27 15 C-27 14.34 -27 13.68 -27 13 C-25.94941406 12.56429687 -24.89882813 12.12859375 -23.81640625 11.6796875 C-16.65538327 8.65855099 -9.89081921 5.71657096 -3.6015625 1.06640625 C-2 0 -2 0 0 0 Z " fill="#95A0AB" transform="translate(352,191)"/>
<path d="M0 0 C0.66 0.33 1.32 0.66 2 1 C1.175 1.969375 0.35 2.93875 -0.5 3.9375 C-3.10539608 6.47022001 -3.10539608 6.47022001 -3 8 C22.74 8 48.48 8 75 8 C75 8.66 75 9.32 75 10 C46.29 10 17.58 10 -12 10 C-7.96080655 5.96080655 -4.60212178 3.15831887 0 0 Z " fill="#B5C7D0" transform="translate(65,158)"/>
<path d="M0 0 C0.33 0 0.66 0 1 0 C1.33 1.65 1.66 3.3 2 5 C3.32 5.33 4.64 5.66 6 6 C5.79375 6.78375 5.5875 7.5675 5.375 8.375 C5.25125 9.24125 5.1275 10.1075 5 11 C5.66 11.66 6.32 12.32 7 13 C4.88940767 15.50144276 3.70331976 16.86276688 0.4375 17.5 C-2 17 -2 17 -3.875 15.375 C-5.43850811 12.07426066 -5.02668646 10.49073397 -4 7 C-2.78549618 4.56609517 -1.43671398 2.31728061 0 0 Z " fill="#476477" transform="translate(311,400)"/>
<path d="M0 0 C1.65 0.33 3.3 0.66 5 1 C5.33 3.31 5.66 5.62 6 8 C6.78375 8.12375 7.5675 8.2475 8.375 8.375 C11 9 11 9 13 11 C13.66 11.33 14.32 11.66 15 12 C15 12.99 15 13.98 15 15 C14.38125 14.814375 13.7625 14.62875 13.125 14.4375 C10.95839822 13.76313824 10.95839822 13.76313824 9 15 C8.01 16.485 8.01 16.485 7 18 C6.34 17.34 5.68 16.68 5 16 C5.375 13.875 5.375 13.875 6 12 C5.34 12 4.68 12 4 12 C1.95236653 9.90404479 0.34364191 7.60129074 -1 5 C-0.8125 2.0625 -0.8125 2.0625 0 0 Z " fill="#345D74" transform="translate(366,110)"/>
<path d="M0 0 C0.66 0.33 1.32 0.66 2 1 C2.37890625 2.9609375 2.37890625 2.9609375 2.5625 5.375 C2.78753088 8.19477465 3.09554568 10.28663703 4 13 C-0.455 13.495 -0.455 13.495 -5 14 C-5.33 13.01 -5.66 12.02 -6 11 C-6.66 11 -7.32 11 -8 11 C-8 9.35 -8 7.7 -8 6 C-6.68 6 -5.36 6 -4 6 C-3.67 4.35 -3.34 2.7 -3 1 C-2.01 1.33 -1.02 1.66 0 2 C0 1.34 0 0.68 0 0 Z " fill="#385B74" transform="translate(576,220)"/>
<path d="M0 0 C0.66 0 1.32 0 2 0 C2 0.99 2 1.98 2 3 C7.28199593 4.19988045 7.28199593 4.19988045 12 2 C12.268125 2.639375 12.53625 3.27875 12.8125 3.9375 C13.88667752 6.33131686 13.88667752 6.33131686 17 7 C16.773125 7.598125 16.54625 8.19625 16.3125 8.8125 C16.209375 9.534375 16.10625 10.25625 16 11 C17.35444301 12.77190909 17.35444301 12.77190909 19 14 C17.37109375 14.76171875 17.37109375 14.76171875 15 15 C12.16015625 13.26953125 12.16015625 13.26953125 9.0625 10.8125 C8.04285156 10.01457031 7.02320313 9.21664062 5.97265625 8.39453125 C4.99167969 7.60433594 4.01070313 6.81414062 3 6 C2.04996094 5.24074219 1.09992188 4.48148438 0.12109375 3.69921875 C-0.57886719 3.13847656 -1.27882813 2.57773438 -2 2 C-1.34 2 -0.68 2 0 2 C0 1.34 0 0.68 0 0 Z " fill="#436375" transform="translate(503,141)"/>
<path d="M0 0 C0 0.66 0 1.32 0 2 C-0.66 2 -1.32 2 -2 2 C-2 2.66 -2 3.32 -2 4 C-3.32 4.33 -4.64 4.66 -6 5 C-6 5.66 -6 6.32 -6 7 C-6.99 7.33 -7.98 7.66 -9 8 C-10.33827304 9.66270287 -11.67189785 11.32916181 -13 13 C-13.66 13 -14.32 13 -15 13 C-15 13.66 -15 14.32 -15 15 C-16.65 15.66 -18.3 16.32 -20 17 C-20 17.66 -20 18.32 -20 19 C-20.99 19.33 -21.98 19.66 -23 20 C-20.1071525 10.45360326 -12.21070516 5.74932945 -4 1 C-2 0 -2 0 0 0 Z " fill="#455F70" transform="translate(432,56)"/>
<path d="M0 0 C3 1 3 1 4.0625 3 C4.371875 3.66 4.68125 4.32 5 5 C5.66 5.33 6.32 5.66 7 6 C6.67 8.31 6.34 10.62 6 13 C5.01 12.67 4.02 12.34 3 12 C3 11.01 3 10.02 3 9 C1.02 9 -0.96 9 -3 9 C-3.36923077 3.46153846 -3.36923077 3.46153846 -1.5 1.125 C-1.005 0.75375 -0.51 0.3825 0 0 Z " fill="#395B72" transform="translate(254,334)"/>
<path d="M0 0 C-0.33 1.65 -0.66 3.3 -1 5 C2.16245541 6.0541518 4.86948218 6.31275672 8.1875 6.5625 C9.81751953 6.68818359 9.81751953 6.68818359 11.48046875 6.81640625 C12.72763672 6.90728516 12.72763672 6.90728516 14 7 C14 7.33 14 7.66 14 8 C5.42 8 -3.16 8 -12 8 C-4 0 -4 0 0 0 Z " fill="#EDFCFE" transform="translate(63,134)"/>
<path d="M0 0 C3 1 3 1 5 3 C5.144375 3.66 5.28875 4.32 5.4375 5 C5.87458708 7.38640738 5.87458708 7.38640738 9 9 C8.01 11.97 7.02 14.94 6 18 C4 16 4 16 3.875 12.875 C3.91625 11.92625 3.9575 10.9775 4 10 C3.34 10 2.68 10 2 10 C2 8.35 2 6.7 2 5 C1.01 4.67 0.02 4.34 -1 4 C-0.67 2.68 -0.34 1.36 0 0 Z M3 4 C4 7 4 7 4 7 Z " fill="#436275" transform="translate(408,76)"/>
<path d="M0 0 C0.33 0 0.66 0 1 0 C1 2.64 1 5.28 1 8 C3.31 8.33 5.62 8.66 8 9 C8 6.03 8 3.06 8 0 C8.66 0 9.32 0 10 0 C11.3260274 7.23287671 11.3260274 7.23287671 9.9375 10.5 C8 12 8 12 5 12.5625 C2 12 2 12 0.0625 9.9375 C-1.27022644 6.25290336 -0.81652673 3.78571484 0 0 Z " fill="#4D6471" transform="translate(577,251)"/>
<path d="M0 0 C0.66 1.32 1.32 2.64 2 4 C3.98 3.34 5.96 2.68 8 2 C8 1.34 8 0.68 8 0 C9.32 0.33 10.64 0.66 12 1 C10.67414156 6.54449895 10.67414156 6.54449895 7.6875 8.5625 C5 9 5 9 2.1875 8 C0 6 0 6 -0.3125 2.8125 C-0.209375 1.884375 -0.10625 0.95625 0 0 Z " fill="#325C73" transform="translate(485,99)"/>
<path d="M0 0 C-0.99 0.66 -1.98 1.32 -3 2 C-2.34 2.33 -1.68 2.66 -1 3 C-0.375 6.0625 -0.375 6.0625 0 9 C-0.556875 8.855625 -1.11375 8.71125 -1.6875 8.5625 C-2.450625 8.376875 -3.21375 8.19125 -4 8 C-4.763125 7.814375 -5.52625 7.62875 -6.3125 7.4375 C-9.5694392 6.9073006 -12.70602711 6.9354123 -16 7 C-16 6.67 -16 6.34 -16 6 C-14.02 5.67 -12.04 5.34 -10 5 C-9.67 4.01 -9.34 3.02 -9 2 C-8.34 2 -7.68 2 -7 2 C-7 1.34 -7 0.68 -7 0 C-3.98968256 -0.93423645 -3.13349732 -1.04449911 0 0 Z " fill="#34586E" transform="translate(300,75)"/>
<path d="M0 0 C0.66 0.33 1.32 0.66 2 1 C2 1.66 2 2.32 2 3 C2.66 3 3.32 3 4 3 C5.83984375 5.01171875 5.83984375 5.01171875 7.9375 7.6875 C8.62714844 8.55761719 9.31679688 9.42773438 10.02734375 10.32421875 C11.85904704 12.80880639 13.46283871 15.32562848 15 18 C11.60905377 16.50921954 9.17173288 14.5469045 6.4375 12.0625 C5.29087891 11.02802734 5.29087891 11.02802734 4.12109375 9.97265625 C2.37468853 8.34846723 0.67001262 6.70202564 -1 5 C-0.34 5 0.32 5 1 5 C0.67 3.35 0.34 1.7 0 0 Z " fill="#5FA2B6" transform="translate(515,133)"/>
<path d="M0 0 C5.21505914 0.23647786 10.42935415 0.48496876 15.64331055 0.74462891 C17.41724048 0.83127288 19.19133427 0.9146272 20.96557617 0.99462891 C23.5153136 1.11016946 26.06422837 1.2375142 28.61328125 1.3671875 C29.40712723 1.40061249 30.20097321 1.43403748 31.01887512 1.46847534 C34.80197101 1.67225787 36.78296231 1.8553082 40 4 C36.02084915 4.02934144 32.04172663 4.04691265 28.0625 4.0625 C26.94552734 4.07087891 25.82855469 4.07925781 24.67773438 4.08789062 C18.35489322 4.10643268 12.26967195 3.80898993 6 3 C4.3336803 2.96599348 2.66580019 2.94626451 1 3 C0.67 2.01 0.34 1.02 0 0 Z " fill="#455D6E" transform="translate(248,201)"/>
<path d="M0 0 C14.19 0 28.38 0 43 0 C43 0.33 43 0.66 43 1 C30.79 1.33 18.58 1.66 6 2 C6.66 2.33 7.32 2.66 8 3 C8 3.66 8 4.32 8 5 C4.35446828 3.7191375 2.83328987 2.83328987 0 0 Z " fill="#D5E7F0" transform="translate(141,154)"/>
<path d="M0 0 C7.26 0 14.52 0 22 0 C16 7 16 7 13 8 C13 6.35 13 4.7 13 3 C8.71 2.34 4.42 1.68 0 1 C0 0.67 0 0.34 0 0 Z " fill="#93A3AF" transform="translate(258,214)"/>
<path d="M0 0 C0.33 1.32 0.66 2.64 1 4 C1.99 3.67 2.98 3.34 4 3 C4 3.66 4 4.32 4 5 C3.34 5 2.68 5 2 5 C2 6.32 2 7.64 2 9 C1.34 9 0.68 9 0 9 C-0.33 10.98 -0.66 12.96 -1 15 C-1.66 15 -2.32 15 -3 15 C-3.33 15.66 -3.66 16.32 -4 17 C-4.66 17 -5.32 17 -6 17 C-4.13236819 11.27789404 -2.14710968 5.62338249 0 0 Z " fill="#4D6879" transform="translate(443,136)"/>
<path d="M0 0 C1.44096586 0.42594588 2.87768712 0.86626633 4.3125 1.3125 C5.11300781 1.55613281 5.91351563 1.79976563 6.73828125 2.05078125 C9.12973213 3.05444717 10.41606268 3.95755451 12 6 C11.6875 8.1875 11.6875 8.1875 11 10 C7.89257577 8.53181332 5.09528261 6.79975 2.25 4.875 C1.45078125 4.33617187 0.6515625 3.79734375 -0.171875 3.2421875 C-0.77515625 2.83226562 -1.3784375 2.42234375 -2 2 C-1.34 1.34 -0.68 0.68 0 0 Z " fill="#496270" transform="translate(276,361)"/>
<path d="M0 0 C0.62648437 0.0721875 1.25296875 0.144375 1.8984375 0.21875 C3.12433594 0.35796875 3.12433594 0.35796875 4.375 0.5 C5.59316406 0.63921875 5.59316406 0.63921875 6.8359375 0.78125 C8.96912825 1.03352351 8.96912825 1.03352351 11 1 C11 1.99 11 2.98 11 4 C6.82262526 5.59138085 3.46839215 6.21278058 -1 6 C-1 2 -1 2 0 0 Z " fill="#37576D" transform="translate(162,83)"/>
<path d="M0 0 C0.66 0.33 1.32 0.66 2 1 C1.175 1.61875 0.35 2.2375 -0.5 2.875 C-1.325 3.57625 -2.15 4.2775 -3 5 C-3 5.66 -3 6.32 -3 7 C-3.598125 7.144375 -4.19625 7.28875 -4.8125 7.4375 C-6.56150404 7.8872439 -8.28677023 8.42892341 -10 9 C-10 9.66 -10 10.32 -10 11 C-12.375 11.625 -12.375 11.625 -15 12 C-15.66 11.34 -16.32 10.68 -17 10 C-14.21605957 8.29949343 -11.42172475 6.61688375 -8.625 4.9375 C-7.8309375 4.45216797 -7.036875 3.96683594 -6.21875 3.46679688 C-5.45820312 3.01240234 -4.69765625 2.55800781 -3.9140625 2.08984375 C-2.8614624 1.45357056 -2.8614624 1.45357056 -1.78759766 0.80444336 C-0.90273682 0.4062439 -0.90273682 0.4062439 0 0 Z " fill="#E2EDF2" transform="translate(80,123)"/>
<path d="M0 0 C0.66 1.32 1.32 2.64 2 4 C1.01 4.33 0.02 4.66 -1 5 C-1.73323796 7.01508358 -1.73323796 7.01508358 -2 9 C-4.31 8.34 -6.62 7.68 -9 7 C-9 7.99 -9 8.98 -9 10 C-10.32 9.34 -11.64 8.68 -13 8 C-8.71 5.36 -4.42 2.72 0 0 Z " fill="#486573" transform="translate(60,122)"/>
<path d="M0 0 C1.98 0.99 1.98 0.99 4 2 C3.67 2.66 3.34 3.32 3 4 C2.84323225 6.69655446 2.74163685 9.37129977 2.68359375 12.0703125 C2.66281265 12.86654022 2.64203156 13.66276794 2.62062073 14.48312378 C2.55515851 17.03032685 2.49625585 19.57763425 2.4375 22.125 C2.3943116 23.85027127 2.35069721 25.57553193 2.30664062 27.30078125 C2.19948055 31.53374685 2.09820377 35.76681753 2 40 C1.67 40 1.34 40 1 40 C0.67 26.8 0.34 13.6 0 0 Z " fill="#F1FAFE" transform="translate(241,339)"/>
<path d="M0 0 C-0.99 0.33 -1.98 0.66 -3 1 C-3 1.66 -3 2.32 -3 3 C-4.43120744 3.55808089 -5.87030355 4.09596462 -7.3125 4.625 C-8.11300781 4.92664063 -8.91351563 5.22828125 -9.73828125 5.5390625 C-10.48464844 5.69117187 -11.23101562 5.84328125 -12 6 C-12.99 5.34 -13.98 4.68 -15 4 C-5.38622754 -1.73128743 -5.38622754 -1.73128743 0 0 Z " fill="#E6F2F7" transform="translate(443,66)"/>
<path d="M0 0 C0 2 0 2 -1.57421875 3.76171875 C-2.27160156 4.39722656 -2.96898438 5.03273438 -3.6875 5.6875 C-4.37199219 6.33074219 -5.05648437 6.97398438 -5.76171875 7.63671875 C-8 9 -8 9 -10.76953125 8.70703125 C-11.50558594 8.47371094 -12.24164063 8.24039063 -13 8 C-13.33 8.66 -13.66 9.32 -14 10 C-14.66 9.34 -15.32 8.68 -16 8 C-13.71125827 6.66141476 -11.41930344 5.32898986 -9.125 4 C-8.47402344 3.6184375 -7.82304688 3.236875 -7.15234375 2.84375 C-2.2265625 0 -2.2265625 0 0 0 Z " fill="#4E6874" transform="translate(77,113)"/>
<path d="M0 0 C0.33 0.66 0.66 1.32 1 2 C1.99 2.33 2.98 2.66 4 3 C4 4.32 4 5.64 4 7 C3.01 7 2.02 7 1 7 C0.67 8.65 0.34 10.3 0 12 C-0.99 11.67 -1.98 11.34 -3 11 C-2.01 7.37 -1.02 3.74 0 0 Z " fill="#476578" transform="translate(394,124)"/>
<path d="M0 0 C6.53990299 0.26802881 12.63003323 0.93396772 18 5 C18.33 5.99 18.66 6.98 19 8 C14.65328707 6.58632741 10.3864361 5.02739359 6.125 3.375 C4.97257812 2.92898437 3.82015625 2.48296875 2.6328125 2.0234375 C1.76398438 1.68570313 0.89515625 1.34796875 0 1 C0 0.67 0 0.34 0 0 Z " fill="#4E6876" transform="translate(468,127)"/>
<path d="M0 0 C1.65 0.33 3.3 0.66 5 1 C4.67 2.98 4.34 4.96 4 7 C7.465 6.505 7.465 6.505 11 6 C10.67 6.66 10.34 7.32 10 8 C7.93359375 8.6328125 7.93359375 8.6328125 5.4375 9.125 C4.61121094 9.29257813 3.78492188 9.46015625 2.93359375 9.6328125 C2.29550781 9.75398438 1.65742188 9.87515625 1 10 C1.66 8.02 2.32 6.04 3 4 C1.35 3.67 -0.3 3.34 -2 3 C-1.34 2.01 -0.68 1.02 0 0 Z " fill="#385768" transform="translate(130,89)"/>
<path d="M0 0 C1.75274927 0.76456132 3.5020963 1.53692493 5.25 2.3125 C6.22453125 2.74175781 7.1990625 3.17101562 8.203125 3.61328125 C10.73888878 4.87053843 12.80980702 6.22177189 15 8 C13.35 8.33 11.7 8.66 10 9 C9.67 8.01 9.34 7.02 9 6 C7.68 6 6.36 6 5 6 C5 5.34 5 4.68 5 4 C3.35 3.67 1.7 3.34 0 3 C0 2.01 0 1.02 0 0 Z " fill="#476171" transform="translate(165,169)"/>
<path d="M0 0 C-0.75 2.4375 -0.75 2.4375 -2 5 C-4.125 5.8125 -4.125 5.8125 -6 6 C-6 5.34 -6 4.68 -6 4 C-6.99 4.33 -7.98 4.66 -9 5 C-9 4.34 -9 3.68 -9 3 C-9.66 2.67 -10.32 2.34 -11 2 C-9.73392393 1.46770674 -8.46189588 0.94955456 -7.1875 0.4375 C-6.47980469 0.14746094 -5.77210937 -0.14257812 -5.04296875 -0.44140625 C-3 -1 -3 -1 0 0 Z " fill="#486376" transform="translate(130,90)"/>
<path d="M0 0 C0.66 0.33 1.32 0.66 2 1 C1.6875 3.375 1.6875 3.375 1 6 C0.01 6.66 -0.98 7.32 -2 8 C-1.33333333 5.33333333 -0.66666667 2.66666667 0 0 Z M-5 6 C-4.34 6 -3.68 6 -3 6 C-0.875 10.625 -0.875 10.625 -2 14 C-2.66 14 -3.32 14 -4 14 C-4.73080266 12.02253397 -5.39421747 10.01927511 -6 8 C-5.67 7.34 -5.34 6.68 -5 6 Z " fill="#335B6C" transform="translate(569,207)"/>
<path d="M0 0 C1.423125 0.495 1.423125 0.495 2.875 1 C5.77062452 2.10159191 5.77062452 2.10159191 8 2 C8 3.32 8 4.64 8 6 C7.34 6 6.68 6 6 6 C5.34 7.32 4.68 8.64 4 10 C3.32845067 8.71086513 2.66291141 7.41859796 2 6.125 C1.62875 5.40570313 1.2575 4.68640625 0.875 3.9453125 C0 2 0 2 0 0 Z " fill="#456373" transform="translate(558,207)"/>
<path d="M0 0 C0.66 0 1.32 0 2 0 C2 1.32 2 2.64 2 4 C2.99 4 3.98 4 5 4 C5.33 5.65 5.66 7.3 6 9 C1.95579349 7.22054913 -1.46078487 4.60470327 -5 2 C-4.360625 1.855625 -3.72125 1.71125 -3.0625 1.5625 C-1.02454854 1.18992819 -1.02454854 1.18992819 0 0 Z " fill="#446371" transform="translate(216,314)"/>
<path d="M0 0 C2.31 0 4.62 0 7 0 C7 0.66 7 1.32 7 2 C8.32 1.67 9.64 1.34 11 1 C11 1.99 11 2.98 11 4 C11.66 4 12.32 4 13 4 C13 4.66 13 5.32 13 6 C8.14036821 5.39254603 4.2594482 3.27241033 0 1 C0 0.67 0 0.34 0 0 Z " fill="#91A0A8" transform="translate(188,180)"/>
<path d="M0 0 C0.33 0 0.66 0 1 0 C1.99829798 4.99148991 2.21845091 8.35181715 0 13 C-1.32 13.99 -2.64 14.98 -4 16 C-2.68 10.72 -1.36 5.44 0 0 Z " fill="#D3E3E8" transform="translate(407,118)"/>
<path d="M0 0 C-0.99 0 -1.98 0 -3 0 C-3.33 0.99 -3.66 1.98 -4 3 C-7.5625 4.1875 -7.5625 4.1875 -11 5 C-11.99 3.68 -12.98 2.36 -14 1 C-12.41913952 0.63495397 -10.83516093 0.28339494 -9.25 -0.0625 C-8.36828125 -0.25972656 -7.4865625 -0.45695312 -6.578125 -0.66015625 C-4.01320972 -0.99825872 -2.42908361 -0.81158635 0 0 Z " fill="#50677B" transform="translate(189,74)"/>
<path d="M0 0 C1.9375 0.25 1.9375 0.25 4 1 C4.66 1.99 5.32 2.98 6 4 C5 6 5 6 3.0625 6.6875 C1 7 1 7 -1 6 C-1.042721 4.33388095 -1.04063832 2.66617115 -1 1 C-0.67 0.67 -0.34 0.34 0 0 Z " fill="#A6A2A5" transform="translate(231,224)"/>
<path d="M0 0 C0.99 0.33 1.98 0.66 3 1 C0.60278512 4.16774824 -1.58905886 6.90942317 -5 9 C-5.99 9 -6.98 9 -8 9 C-8 8.34 -8 7.68 -8 7 C-6.68 6.67 -5.36 6.34 -4 6 C-4 5.01 -4 4.02 -4 3 C-3.34 3 -2.68 3 -2 3 C-2 2.34 -2 1.68 -2 1 C-1.34 0.67 -0.68 0.34 0 0 Z " fill="#405E6C" transform="translate(366,175)"/>
<path d="M0 0 C-6.58489882 3.95093929 -14.59625265 3.12049498 -22 3 C-22 2.67 -22 2.34 -22 2 C-7.40318907 -0.29612756 -7.40318907 -0.29612756 0 0 Z " fill="#C6D5DE" transform="translate(214,81)"/>
<path d="M0 0 C2.12109375 0.5546875 2.12109375 0.5546875 5.12109375 2.5546875 C2.15109375 2.2246875 -0.81890625 1.8946875 -3.87890625 1.5546875 C-3.87890625 2.2146875 -3.87890625 2.8746875 -3.87890625 3.5546875 C-6.18890625 3.5546875 -8.49890625 3.5546875 -10.87890625 3.5546875 C-7.68569073 -1.02688259 -5.08144781 -0.70266226 0 0 Z " fill="#4A6378" transform="translate(306.87890625,74.4453125)"/>
<path d="M0 0 C5.94 0 11.88 0 18 0 C18 0.33 18 0.66 18 1 C12.92523206 2.26305335 8.27203646 3.27036084 3 3 C3 2.34 3 1.68 3 1 C2.01 0.67 1.02 0.34 0 0 Z " fill="#486170" transform="translate(437,54)"/>
<path d="M0 0 C2.41796875 0.7421875 2.41796875 0.7421875 5 2 C6.25249295 4.63182063 6.48470086 7.09558668 7 10 C7.66 10 8.32 10 9 10 C8.67 11.32 8.34 12.64 8 14 C5.66635648 11.07096942 3.95039164 8.11431797 2.3125 4.75 C1.65701172 3.41195312 1.65701172 3.41195312 0.98828125 2.046875 C0.66214844 1.37140625 0.33601562 0.6959375 0 0 Z " fill="#4A6271" transform="translate(550,193)"/>
<path d="M0 0 C0.99 0.66 1.98 1.32 3 2 C1.3790787 3.17232685 -0.24686833 4.3377077 -1.875 5.5 C-2.77992188 6.1496875 -3.68484375 6.799375 -4.6171875 7.46875 C-7 9 -7 9 -9 9 C-9 8.34 -9 7.68 -9 7 C-8.01 7 -7.02 7 -6 7 C-5.9071875 6.1028125 -5.9071875 6.1028125 -5.8125 5.1875 C-4.6763243 2.12856542 -2.82669858 1.44958901 0 0 Z " fill="#95A0A6" transform="translate(349,175)"/>
<path d="M0 0 C2.95749791 3.46741134 5.07848152 6.86873527 7 11 C5.35 10.67 3.7 10.34 2 10 C1.67 8.02 1.34 6.04 1 4 C0.01 3.67 -0.98 3.34 -2 3 C-1.34 2.01 -0.68 1.02 0 0 Z " fill="#476373" transform="translate(546,155)"/>
<path d="M0 0 C0 0.99 0 1.98 0 3 C-5.25714286 7 -5.25714286 7 -8 7 C-8.33 5.68 -8.66 4.36 -9 3 C-2.25 0 -2.25 0 0 0 Z " fill="#456273" transform="translate(119,93)"/>
<path d="M0 0 C0.99 0.66 1.98 1.32 3 2 C2.67 4.31 2.34 6.62 2 9 C0.68 9 -0.64 9 -2 9 C-2.66 8.34 -3.32 7.68 -4 7 C-3.01 6.67 -2.02 6.34 -1 6 C-0.67 4.02 -0.34 2.04 0 0 Z " fill="#4C6170" transform="translate(266,432)"/>
<path d="M0 0 C0.33 0 0.66 0 1 0 C1.38063221 2.3260857 1.71269945 4.66055264 2 7 C1.67 7.33 1.34 7.66 1 8 C0.63239269 10.32817964 0.29758419 12.6618385 0 15 C-0.99 15 -1.98 15 -3 15 C-2.68917128 13.24970238 -2.37626821 11.49977306 -2.0625 9.75 C-1.88847656 8.77546875 -1.71445313 7.8009375 -1.53515625 6.796875 C-1.09620271 4.50278205 -0.59651408 2.25708029 0 0 Z " fill="#556C78" transform="translate(239,289)"/>
<path d="M0 0 C0.99 0.33 1.98 0.66 3 1 C3.6875 3.0625 3.6875 3.0625 4 5 C6.31 5 8.62 5 11 5 C10.67 5.99 10.34 6.98 10 8 C7.36 8 4.72 8 2 8 C1.34 5.36 0.68 2.72 0 0 Z " fill="#90A1AC" transform="translate(252,230)"/>
<path d="M0 0 C1.09658936 3.28976808 0.79953138 4.71303767 0 8 C-1.8125 8.625 -1.8125 8.625 -4 9 C-4.99 8.34 -5.98 7.68 -7 7 C-6.21625 6.401875 -5.4325 5.80375 -4.625 5.1875 C-1.85425677 3.08914751 -1.85425677 3.08914751 0 0 Z " fill="#929EA9" transform="translate(383,162)"/>
<path d="M0 0 C3.21043882 1.38188453 5.04936365 2.92421903 7.25 5.625 C7.77078125 6.25664063 8.2915625 6.88828125 8.828125 7.5390625 C9.40820312 8.26222656 9.40820312 8.26222656 10 9 C9.01 9.33 8.02 9.66 7 10 C5.79557292 8.47005208 4.59114583 6.94010417 3.38671875 5.41015625 C1.94316909 3.72844923 1.94316909 3.72844923 -1 3 C-0.67 2.01 -0.34 1.02 0 0 Z " fill="#455F6E" transform="translate(510,113)"/>
<path d="M0 0 C0 0.66 0 1.32 0 2 C0.66 2.33 1.32 2.66 2 3 C-1.9813783 4.3271261 -5.85045227 4.06915913 -10 4 C-10 3.34 -10 2.68 -10 2 C-6.38026598 0.68373308 -3.90432869 0 0 0 Z " fill="#49606E" transform="translate(155,81)"/>
<path d="M0 0 C0 0.99 0 1.98 0 3 C-0.61875 2.814375 -1.2375 2.62875 -1.875 2.4375 C-4.04160178 1.76313824 -4.04160178 1.76313824 -6 3 C-6.99 4.485 -6.99 4.485 -8 6 C-8.66 5.34 -9.32 4.68 -10 4 C-9.1875 2.0625 -9.1875 2.0625 -8 0 C-4.71023192 -1.09658936 -3.28696233 -0.79953138 0 0 Z " fill="#37566B" transform="translate(381,122)"/>
<path d="M0 0 C0.515625 0.2475 1.03125 0.495 1.5625 0.75 C-0.85339267 4.37383901 -2.26806007 4.81400328 -6.4375 5.75 C-7.4275 5.09 -8.4175 4.43 -9.4375 3.75 C-3.0375 -0.31153846 -3.0375 -0.31153846 0 0 Z " fill="#405A6C" transform="translate(105.4375,99.25)"/>
<path d="M0 0 C-0.7115625 0.680625 -0.7115625 0.680625 -1.4375 1.375 C-3.09027808 2.93258204 -3.09027808 2.93258204 -4 5 C-6.97 4.01 -9.94 3.02 -13 2 C-8.34136785 -0.32931608 -5.0485768 -1.68285893 0 0 Z " fill="#D2E2E6" transform="translate(180,87)"/>
<path d="M0 0 C3.3 0 6.6 0 10 0 C10 0.66 10 1.32 10 2 C10.99 2.33 11.98 2.66 13 3 C9.04 3 5.08 3 1 3 C0.67 2.01 0.34 1.02 0 0 Z " fill="#3A5568" transform="translate(254,69)"/>
<path d="M0 0 C3.125 -0.1875 3.125 -0.1875 6 0 C-3.71428571 8 -3.71428571 8 -7 8 C-6 5 -6 5 -4.0625 4 C-3.0415625 3.505 -3.0415625 3.505 -2 3 C-1.34 2.01 -0.68 1.02 0 0 Z " fill="#435C6C" transform="translate(59,132)"/>
<path d="M0 0 C0.33 0.66 0.66 1.32 1 2 C1.556875 1.814375 2.11375 1.62875 2.6875 1.4375 C5.399133 0.92448835 7.34371039 1.3359276 10 2 C9.67 2.99 9.34 3.98 9 5 C4.545 4.01 4.545 4.01 0 3 C-0.33 3.66 -0.66 4.32 -1 5 C-1.33 3.68 -1.66 2.36 -2 1 C-1.34 0.67 -0.68 0.34 0 0 Z " fill="#496475" transform="translate(459,122)"/>
<path d="M0 0 C0.66 0.66 1.32 1.32 2 2 C2.66 1.67 3.32 1.34 4 1 C4.042721 2.66611905 4.04063832 4.33382885 4 6 C3.67 6.33 3.34 6.66 3 7 C2.76807135 8.51469448 2.58784762 10.03754562 2.4375 11.5625 C2.35371094 12.38878906 2.26992188 13.21507813 2.18359375 14.06640625 C2.12300781 14.70449219 2.06242187 15.34257813 2 16 C1.67 16 1.34 16 1 16 C0.67 10.72 0.34 5.44 0 0 Z " fill="#617D8E" transform="translate(447,88)"/>
<path d="M0 0 C0.639375 0.4125 1.27875 0.825 1.9375 1.25 C1.9375 1.58 1.9375 1.91 1.9375 2.25 C-0.01686127 2.80582752 -1.97616982 3.34428713 -3.9375 3.875 C-5.02804687 4.17664063 -6.11859375 4.47828125 -7.2421875 4.7890625 C-8.17289062 4.94117187 -9.10359375 5.09328125 -10.0625 5.25 C-10.7225 4.59 -11.3825 3.93 -12.0625 3.25 C-4.02748906 -0.98632385 -4.02748906 -0.98632385 0 0 Z " fill="#5CA9BF" transform="translate(471.0625,81.75)"/>
<path d="M0 0 C2.02045442 0.60183749 4.02111039 1.27306096 6 2 C6.33 2.66 6.66 3.32 7 4 C1.25 7 1.25 7 -1 7 C-0.67 4.69 -0.34 2.38 0 0 Z " fill="#E5F2F6" transform="translate(458,67)"/>
<path d="M0 0 C0.33 0 0.66 0 1 0 C1.33 2.97 1.66 5.94 2 9 C3.32 8.67 4.64 8.34 6 8 C6.33 9.32 6.66 10.64 7 12 C4.69 12 2.38 12 0 12 C0 8.04 0 4.08 0 0 Z " fill="#919EAA" transform="translate(228,221)"/>
<path d="M0 0 C2 4 2 4 1.625 6.25 C1.41875 6.8275 1.2125 7.405 1 8 C1.66 8.33 2.32 8.66 3 9 C1.02 9.66 -0.96 10.32 -3 11 C-2.01 7.37 -1.02 3.74 0 0 Z " fill="#D7E9EF" transform="translate(397,192)"/>
<path d="M0 0 C3.63559661 3.43361902 6.36113346 6.7973607 9 11 C6.6875 10.875 6.6875 10.875 4 10 C2.00939343 6.80081088 0.7114794 3.6996929 0 0 Z " fill="#4B6675" transform="translate(529,132)"/>
<path d="M0 0 C0.99 0.33 1.98 0.66 3 1 C2.75 2.875 2.75 2.875 2 5 C-0.0625 6.25 -0.0625 6.25 -2 7 C-2.99 6.34 -3.98 5.68 -5 5 C-3.35 3.35 -1.7 1.7 0 0 Z " fill="#E0ECF0" transform="translate(426,71)"/>
<path d="M0 0 C0.66 0.33 1.32 0.66 2 1 C1.360625 1.94875 0.72125 2.8975 0.0625 3.875 C-1.92620563 6.75287827 -1.92620563 6.75287827 -3 9 C-3.66 9 -4.32 9 -5 9 C-5 9.66 -5 10.32 -5 11 C-5.99 11.33 -6.98 11.66 -8 12 C-6.49087042 7.01987239 -3.44338151 3.75740058 0 0 Z " fill="#526B78" transform="translate(417,64)"/>
<path d="M0 0 C0.66 0 1.32 0 2 0 C2.66 1.98 3.32 3.96 4 6 C3.34 6 2.68 6 2 6 C2.33 6.99 2.66 7.98 3 9 C0.00675737 7.9024777 -0.84610901 7.32317108 -2.25 4.375 C-2.4975 3.59125 -2.745 2.8075 -3 2 C-2.34 2 -1.68 2 -1 2 C-0.67 1.34 -0.34 0.68 0 0 Z " fill="#365971" transform="translate(301,369)"/>
<path d="M0 0 C0.66 0 1.32 0 2 0 C1.44854729 5.23880078 0.57077907 9.97350697 -1 15 C-1.33 15 -1.66 15 -2 15 C-2.09757265 10.21894005 -1.84798905 5.71105026 -1 1 C-0.67 0.67 -0.34 0.34 0 0 Z " fill="#475F6C" transform="translate(226,262)"/>
<path d="M0 0 C0.598125 0.309375 1.19625 0.61875 1.8125 0.9375 C4.08956772 2.10209704 4.08956772 2.10209704 7 3 C7.33 2.34 7.66 1.68 8 1 C7.75 2.875 7.75 2.875 7 5 C4.85331506 6.38495802 3.56128588 7 1 7 C0.67 4.69 0.34 2.38 0 0 Z M2 3 C2.66 3.66 3.32 4.32 4 5 C4 4.34 4 3.68 4 3 C3.34 3 2.68 3 2 3 Z " fill="#33586C" transform="translate(572,237)"/>
<path d="M0 0 C0.99 0 1.98 0 3 0 C2.5359375 1.11375 2.5359375 1.11375 2.0625 2.25 C0.59001036 7.44702225 0.33050945 12.62487263 0 18 C-0.33 18 -0.66 18 -1 18 C-1.02690844 15.37493198 -1.04679404 12.75013827 -1.0625 10.125 C-1.07087891 9.37863281 -1.07925781 8.63226563 -1.08789062 7.86328125 C-1.11328125 2.2265625 -1.11328125 2.2265625 0 0 Z " fill="#A3ACB0" transform="translate(230,214)"/>
<path d="M0 0 C0.66 0 1.32 0 2 0 C2.34615998 5.65394631 1.43425238 9.03006806 -1 14 C-2.13732426 10.59598052 -1.83989957 8.22543336 -1.0625 4.75 C-0.86785156 3.85796875 -0.67320312 2.9659375 -0.47265625 2.046875 C-0.31667969 1.37140625 -0.16070312 0.6959375 0 0 Z " fill="#546C77" transform="translate(399,102)"/>
<path d="M0 0 C0 1.32 0 2.64 0 4 C-2.57213134 5.61949011 -3.67669159 6.04408751 -6.75 5.625 C-7.4925 5.41875 -8.235 5.2125 -9 5 C-2.87096774 0 -2.87096774 0 0 0 Z " fill="#496475" transform="translate(88,107)"/>
<path d="M0 0 C0.66 0.99 1.32 1.98 2 3 C2.66 2.01 3.32 1.02 4 0 C4 1.65 4 3.3 4 5 C3.01 5 2.02 5 1 5 C0.67 5.66 0.34 6.32 0 7 C-0.66 7 -1.32 7 -2 7 C-2.99 7.495 -2.99 7.495 -4 8 C-1.39130435 1.39130435 -1.39130435 1.39130435 0 0 Z " fill="#33576C" transform="translate(251,270)"/>
<path d="M0 0 C1.48280196 0.78483659 2.9611498 1.57809334 4.4375 2.375 C5.67306641 3.03628906 5.67306641 3.03628906 6.93359375 3.7109375 C9 5 9 5 10 7 C8.02 7 6.04 7 4 7 C4 6.34 4 5.68 4 5 C2.37373596 3.61767557 0.7074998 2.28062485 -1 1 C-0.67 0.67 -0.34 0.34 0 0 Z " fill="#E5F4F8" transform="translate(128,160)"/>
<path d="M0 0 C1.65 0.33 3.3 0.66 5 1 C5 2.65 5 4.3 5 6 C2.525 5.01 2.525 5.01 0 4 C0 2.68 0 1.36 0 0 Z " fill="#4A6677" transform="translate(124,154)"/>
<path d="M0 0 C3.81684226 1.55500981 6.19195732 4.03595495 9 7 C8.01 7 7.02 7 6 7 C5.67 6.01 5.34 5.02 5 4 C3.02 4 1.04 4 -1 4 C-0.67 2.68 -0.34 1.36 0 0 Z " fill="#476372" transform="translate(499,103)"/>
<path d="M0 0 C1.8871875 0.0309375 1.8871875 0.0309375 3.8125 0.0625 C4.1425 1.0525 4.4725 2.0425 4.8125 3.0625 C4.1525 3.7225 3.4925 4.3825 2.8125 5.0625 C2.4825 4.0725 2.1525 3.0825 1.8125 2.0625 C-3.73803286 2.80609673 -3.73803286 2.80609673 -9.1875 4.0625 C-6.53873473 0.0893521 -4.49238456 -0.07364565 0 0 Z " fill="#336E84" transform="translate(473.1875,78.9375)"/>
<path d="M0 0 C0.33 0.66 0.66 1.32 1 2 C1.99 2 2.98 2 4 2 C4.66 1.34 5.32 0.68 6 0 C6.33 0.99 6.66 1.98 7 3 C6.34 3.66 5.68 4.32 5 5 C5.33 5.66 5.66 6.32 6 7 C4.68 6.67 3.36 6.34 2 6 C2 5.34 2 4.68 2 4 C1.01 3.67 0.02 3.34 -1 3 C-0.67 2.01 -0.34 1.02 0 0 Z " fill="#325C72" transform="translate(241,328)"/>
<path d="M0 0 C1.32 0.33 2.64 0.66 4 1 C3.34 4.3 2.68 7.6 2 11 C1.67 11 1.34 11 1 11 C0.67 7.37 0.34 3.74 0 0 Z " fill="#4F6776" transform="translate(257,251)"/>
<path d="M0 0 C0.33 0.99 0.66 1.98 1 3 C-0.3125 4.9375 -0.3125 4.9375 -2 7 C-2.69580267 8.31836295 -3.37224433 9.64791086 -4 11 C-4.66 9.68 -5.32 8.36 -6 7 C-4.625 5 -4.625 5 -3 3 C-2.34 3 -1.68 3 -1 3 C-0.67 2.01 -0.34 1.02 0 0 Z " fill="#94A3AB" transform="translate(269,222)"/>
<path d="M0 0 C2.64 0.33 5.28 0.66 8 1 C6.02 1.99 6.02 1.99 4 3 C4 4.65 4 6.3 4 8 C3.01 8.495 3.01 8.495 2 9 C1.34 6.03 0.68 3.06 0 0 Z " fill="#95A6B2" transform="translate(247,212)"/>
<path d="M0 0 C-1.75 5.75 -1.75 5.75 -4 8 C-5 7 -5 7 -5.0625 3.9375 C-5.041875 2.968125 -5.02125 1.99875 -5 1 C-3 0 -3 0 0 0 Z " fill="#446473" transform="translate(448,155)"/>
<path d="M0 0 C3.4375 1.1875 3.4375 1.1875 4.4375 3.1875 C0.50079512 4.49973496 -1.68738144 3.43046256 -5.5625 2.1875 C-5.5625 1.5275 -5.5625 0.8675 -5.5625 0.1875 C-3.5625 -0.8125 -3.5625 -0.8125 0 0 Z " fill="#5BA4BC" transform="translate(474.5625,114.8125)"/>
<path d="M0 0 C3.79588866 0.54226981 5.47211993 2.20127563 8 5 C7.34 5.66 6.68 6.32 6 7 C5.34 6.67 4.68 6.34 4 6 C4 5.34 4 4.68 4 4 C3.01 3.67 2.02 3.34 1 3 C0.67 2.01 0.34 1.02 0 0 Z " fill="#405967" transform="translate(224,313)"/>
<path d="M0 0 C3.32643967 2.98232523 5.29152862 5.86370087 7 10 C6.67 10.66 6.34 11.32 6 12 C5.34 11.67 4.68 11.34 4 11 C4 9.68 4 8.36 4 7 C3.34 7 2.68 7 2 7 C0.5393715 4.35261084 0 3.10551666 0 0 Z " fill="#4B6471" transform="translate(557,175)"/>
<path d="M0 0 C0.99 0.33 1.98 0.66 3 1 C3.33 2.98 3.66 4.96 4 7 C2.35 6.67 0.7 6.34 -1 6 C-1.33 5.01 -1.66 4.02 -2 3 C-1.01 3 -0.02 3 1 3 C0.67 2.01 0.34 1.02 0 0 Z " fill="#5FACC3" transform="translate(512,131)"/>
<path d="M0 0 C0.33 0 0.66 0 1 0 C1 3.96 1 7.92 1 12 C1.66 12 2.32 12 3 12 C2.34 13.32 1.68 14.64 1 16 C0.34 16 -0.32 16 -1 16 C-0.67 10.72 -0.34 5.44 0 0 Z " fill="#5F7B8A" transform="translate(449,108)"/>
<path d="M0 0 C0.66 0.33 1.32 0.66 2 1 C-2.625 5 -2.625 5 -6 5 C-8.00309329 5.31421071 -10.00371336 5.6451046 -12 6 C-9.48617788 4.32411859 -7.17052712 3.05969689 -4.4375 1.8125 C-3.65246094 1.44769531 -2.86742188 1.08289063 -2.05859375 0.70703125 C-1.37925781 0.47371094 -0.69992188 0.24039063 0 0 Z " fill="#D1E4EA" transform="translate(117,105)"/>
<path d="M0 0 C0.33 1.32 0.66 2.64 1 4 C1.66 4.33 2.32 4.66 3 5 C1.625 7.5 1.625 7.5 0 10 C-0.66 10 -1.32 10 -2 10 C-1.34 6.7 -0.68 3.4 0 0 Z " fill="#546B7B" transform="translate(235,305)"/>
<path d="M0 0 C1.32 0.66 2.64 1.32 4 2 C3.34 2 2.68 2 2 2 C2.20625 2.78375 2.4125 3.5675 2.625 4.375 C2.810625 5.674375 2.810625 5.674375 3 7 C2.34 7.66 1.68 8.32 1 9 C0.34 8.34 -0.32 7.68 -1 7 C-0.625 3.375 -0.625 3.375 0 0 Z " fill="#3E5967" transform="translate(206,304)"/>
<path d="M0 0 C2.22825644 2.22825644 2.69239369 3.65761628 3.625 6.625 C4.01558594 7.85089844 4.01558594 7.85089844 4.4140625 9.1015625 C4.60742188 9.72804687 4.80078125 10.35453125 5 11 C4.01 11.495 4.01 11.495 3 12 C3 11.34 3 10.68 3 10 C2.34 9.67 1.68 9.34 1 9 C0.5859375 6.93359375 0.5859375 6.93359375 0.375 4.4375 C0.30023437 3.61121094 0.22546875 2.78492188 0.1484375 1.93359375 C0.09945312 1.29550781 0.05046875 0.65742188 0 0 Z " fill="#516877" transform="translate(565,189)"/>
<path d="M0 0 C1.485 0.99 1.485 0.99 3 2 C2.67 3.32 2.34 4.64 2 6 C2.66 6.33 3.32 6.66 4 7 C2.68 7 1.36 7 0 7 C-0.38133299 5.0085944 -0.71325582 3.00720923 -1 1 C-0.67 0.67 -0.34 0.34 0 0 Z " fill="#556D78" transform="translate(27,145)"/>
<path d="M0 0 C2.0625 0.4375 2.0625 0.4375 4 1 C3.01 1.495 3.01 1.495 2 2 C2 2.66 2 3.32 2 4 C2.66 4 3.32 4 4 4 C3.67 4.99 3.34 5.98 3 7 C1.68 6.67 0.36 6.34 -1 6 C-1.042721 4.33388095 -1.04063832 2.66617115 -1 1 C-0.67 0.67 -0.34 0.34 0 0 Z " fill="#3F6579" transform="translate(396,137)"/>
<path d="M0 0 C3.3 0.99 6.6 1.98 10 3 C9.67 3.66 9.34 4.32 9 5 C7.824375 4.9690625 7.824375 4.9690625 6.625 4.9375 C4.01885039 4.81315937 4.01885039 4.81315937 2 6 C2.33 4.68 2.66 3.36 3 2 C2.01 1.67 1.02 1.34 0 1 C0 0.67 0 0.34 0 0 Z " fill="#E5EFF3" transform="translate(312,88)"/>
<path d="M0 0 C1.9453125 0.9609375 1.9453125 0.9609375 4.125 2.375 C4.84945313 2.83648437 5.57390625 3.29796875 6.3203125 3.7734375 C6.87460937 4.17820312 7.42890625 4.58296875 8 5 C8 5.33 8 5.66 8 6 C6.35 6 4.7 6 3 6 C2.67 5.34 2.34 4.68 2 4 C1.01 4 0.02 4 -1 4 C-1.33 3.01 -1.66 2.02 -2 1 C-1.34 0.67 -0.68 0.34 0 0 Z " fill="#4D6472" transform="translate(283,354)"/>
<path d="M0 0 C2 4 2 4 1.125 7.75 C0.75375 8.8225 0.3825 9.895 0 11 C-0.66 10.67 -1.32 10.34 -2 10 C-1.34 6.7 -0.68 3.4 0 0 Z " fill="#516975" transform="translate(216,264)"/>
<path d="M0 0 C1.32 0.66 2.64 1.32 4 2 C2.33333333 3.66666667 0.66666667 5.33333333 -1 7 C-1.99 6.67 -2.98 6.34 -4 6 C-2.68 4.02 -1.36 2.04 0 0 Z " fill="#44667C" transform="translate(175,179)"/>
<path d="M0 0 C0.66 0.33 1.32 0.66 2 1 C2.625 3.0625 2.625 3.0625 3 5 C0.36 5 -2.28 5 -5 5 C-3.35 3.35 -1.7 1.7 0 0 Z " fill="#D7EDF2" transform="translate(58,163)"/>
<path d="M0 0 C2.31 0 4.62 0 7 0 C7 0.99 7 1.98 7 3 C4.36 3 1.72 3 -1 3 C-0.67 2.01 -0.34 1.02 0 0 Z " fill="#3E5B69" transform="translate(433,55)"/>
<path d="M0 0 C2 2 2 2 3 5 C2.01 5.495 2.01 5.495 1 6 C-1.01920337 4.69593116 -3.01924973 3.36176581 -5 2 C-5 1.67 -5 1.34 -5 1 C-2.625 0.375 -2.625 0.375 0 0 Z " fill="#4E6A7D" transform="translate(301,377)"/>
<path d="M0 0 C5.75 -0.125 5.75 -0.125 8 1 C7.67 2.32 7.34 3.64 7 5 C4.11562221 3.70700306 2.12780579 2.34058637 0 0 Z " fill="#526878" transform="translate(280,366)"/>
<path d="M0 0 C6.875 3.75 6.875 3.75 8 6 C6.25 6.75 6.25 6.75 4 7 C1.75 5.25 1.75 5.25 0 3 C0 2.01 0 1.02 0 0 Z " fill="#526674" transform="translate(265,341)"/>
<path d="M0 0 C1.90318884 2.85478326 2.4619099 4.41941308 3.125 7.6875 C3.29257812 8.49574219 3.46015625 9.30398437 3.6328125 10.13671875 C3.75398437 10.75160156 3.87515625 11.36648437 4 12 C2 10.5 2 10.5 0 8 C-0.35800135 5.24128373 -0.18660165 2.79902476 0 0 Z " fill="#576E7E" transform="translate(578,222)"/>
<path d="M0 0 C-3.03525486 2.02350324 -4.19426202 2.32124018 -7.6875 2.625 C-8.49574219 2.69976562 -9.30398438 2.77453125 -10.13671875 2.8515625 C-10.75160156 2.90054688 -11.36648438 2.94953125 -12 3 C-8.61613364 -0.38386636 -4.56431325 -1.75550509 0 0 Z " fill="#435B6B" transform="translate(316,198)"/>
<path d="M0 0 C5.23175837 -0.38281159 8.37802694 0.78145293 13 3 C9.01727361 4.32757546 6.9189808 3.3296542 3 2 C2.01 1.34 1.02 0.68 0 0 Z " fill="#A0AAB3" transform="translate(220,192)"/>
<path d="M0 0 C0.66 0.99 1.32 1.98 2 3 C-0.30368736 4.06652192 -2.64018187 5.06421005 -5 6 C-5.66 5.67 -6.32 5.34 -7 5 C-4.69 3.35 -2.38 1.7 0 0 Z " fill="#4E6778" transform="translate(49,156)"/>
<path d="M0 0 C0.66 0 1.32 0 2 0 C0.60667426 3.36720387 -0.9789286 4.9859524 -4 7 C-4.66 6.67 -5.32 6.34 -6 6 C-6 5.34 -6 4.68 -6 4 C-5.01 3.67 -4.02 3.34 -3 3 C-2.484375 2.484375 -1.96875 1.96875 -1.4375 1.4375 C-0.963125 0.963125 -0.48875 0.48875 0 0 Z " fill="#E1EEF1" transform="translate(372,155)"/>
<path d="M0 0 C0.99 0.33 1.98 0.66 3 1 C2.01 3.64 1.02 6.28 0 9 C-0.99 8.34 -1.98 7.68 -3 7 C-2.01 5.35 -1.02 3.7 0 2 C-0.66 1.67 -1.32 1.34 -2 1 C-1.34 0.67 -0.68 0.34 0 0 Z " fill="#506777" transform="translate(452,138)"/>
<path d="M0 0 C1.625 1.3125 1.625 1.3125 3 3 C3 3.99 3 4.98 3 6 C0.03 5.505 0.03 5.505 -3 5 C-3.33 3.68 -3.66 2.36 -4 1 C-2 0 -2 0 0 0 Z " fill="#315A6D" transform="translate(504,107)"/>
<path d="M0 0 C-2.6875 2.125 -2.6875 2.125 -6 4 C-8.875 3.25 -8.875 3.25 -11 2 C-7.50078951 0.05599417 -3.80583038 -1.90291519 0 0 Z " fill="#DAE7EC" transform="translate(167,90)"/>
<path d="M0 0 C0 0.99 0 1.98 0 3 C-2.31 3.33 -4.62 3.66 -7 4 C-7.33 3.34 -7.66 2.68 -8 2 C-5.09399739 0.74335022 -3.20395416 0 0 0 Z " fill="#4B626E" transform="translate(138,86)"/>
<path d="M0 0 C1.85772162 0.08984301 3.71247985 0.24611861 5.5625 0.4375 C7.08037109 0.59025391 7.08037109 0.59025391 8.62890625 0.74609375 C9.80259766 0.87177734 9.80259766 0.87177734 11 1 C11 1.33 11 1.66 11 2 C7.37 2.66 3.74 3.32 0 4 C-0.33 3.01 -0.66 2.02 -1 1 C-0.67 0.67 -0.34 0.34 0 0 Z " fill="#526A78" transform="translate(284,71)"/>
<path d="M0 0 C2.4375 1.1875 2.4375 1.1875 5 3 C5.8125 5.6875 5.8125 5.6875 6 8 C5.01 8.495 5.01 8.495 4 9 C4 8.01 4 7.02 4 6 C3.34 6 2.68 6 2 6 C1.34 4.02 0.68 2.04 0 0 Z " fill="#536879" transform="translate(478,65)"/>
<path d="M0 0 C0.99 0.33 1.98 0.66 3 1 C3.33 1.99 3.66 2.98 4 4 C3.34 4 2.68 4 2 4 C1.67 4.66 1.34 5.32 1 6 C-0.32 4.68 -1.64 3.36 -3 2 C-2.01 1.34 -1.02 0.68 0 0 Z " fill="#36556A" transform="translate(289,367)"/>
<path d="M0 0 C2 2 2 2 2.375 4.4375 C2 7 2 7 -2 10 C-1.34 6.7 -0.68 3.4 0 0 Z " fill="#99A6B4" transform="translate(237,223)"/>
<path d="M0 0 C0.66 0.33 1.32 0.66 2 1 C1.34 3.64 0.68 6.28 0 9 C-0.33 8.34 -0.66 7.68 -1 7 C-1.66 6.67 -2.32 6.34 -3 6 C-2.01 4.02 -1.02 2.04 0 0 Z " fill="#476776" transform="translate(433,160)"/>
<path d="M0 0 C0.66 0 1.32 0 2 0 C2 0.99 2 1.98 2 3 C3.65 3.33 5.3 3.66 7 4 C6.67 4.99 6.34 5.98 6 7 C3.36 5.35 0.72 3.7 -2 2 C-1.34 1.34 -0.68 0.68 0 0 Z " fill="#4E6879" transform="translate(131,159)"/>
<path d="M0 0 C4.20626034 1.50223584 5.73900021 4.28550034 8 8 C4.63820226 6.55922954 2.40843732 4.75249979 0 2 C0 1.34 0 0.68 0 0 Z " fill="#6D9CB2" transform="translate(522,143)"/>
<path d="M0 0 C0.66 0.33 1.32 0.66 2 1 C0.3125 3.5 0.3125 3.5 -2 6 C-4.75 6.3125 -4.75 6.3125 -7 6 C-4.74259377 3.66475218 -2.7194239 1.81294927 0 0 Z " fill="#D3E7ED" transform="translate(58,136)"/>
<path d="M0 0 C4.43090471 1.20842856 6.98112756 2.51668565 10 6 C5.75354935 6 3.61475228 4.18249194 0 2 C0 1.34 0 0.68 0 0 Z " fill="#29647A" transform="translate(496,128)"/>
<path d="M0 0 C0.99 0.33 1.98 0.66 3 1 C2.67 1.99 2.34 2.98 2 4 C0.02 4.33 -1.96 4.66 -4 5 C-4 4.34 -4 3.68 -4 3 C-3.34 3 -2.68 3 -2 3 C-2 2.34 -2 1.68 -2 1 C-1.34 0.67 -0.68 0.34 0 0 Z " fill="#305D7A" transform="translate(153,85)"/>
<path d="M0 0 C1.485 0.99 1.485 0.99 3 2 C2.01 4.64 1.02 7.28 0 10 C-0.33 10 -0.66 10 -1 10 C-1.02689216 8.52093108 -1.04634621 7.04172517 -1.0625 5.5625 C-1.07410156 4.73878906 -1.08570313 3.91507812 -1.09765625 3.06640625 C-1 1 -1 1 0 0 Z " fill="#4C6274" transform="translate(448,78)"/>
<path d="M0 0 C2.56269497 1.04109483 4.02610343 2.02610343 6 4 C3.39417629 4.93065133 2.35801776 5.14917407 -0.25 4.0625 C-0.8275 3.711875 -1.405 3.36125 -2 3 C-2 2.34 -2 1.68 -2 1 C-1.34 0.67 -0.68 0.34 0 0 Z " fill="#4A6474" transform="translate(220,309)"/>
<path d="M0 0 C0.99 0.33 1.98 0.66 3 1 C2.34 4.3 1.68 7.6 1 11 C0.67 11 0.34 11 0 11 C0 7.37 0 3.74 0 0 Z " fill="#536778" transform="translate(248,289)"/>
<path d="M0 0 C0.33 0.66 0.66 1.32 1 2 C-1.625 5.875 -1.625 5.875 -5 7 C-5.66 6.34 -6.32 5.68 -7 5 C-4.69 3.35 -2.38 1.7 0 0 Z " fill="#47606D" transform="translate(353,175)"/>
<path d="M0 0 C0.66 0 1.32 0 2 0 C1.34 2.31 0.68 4.62 0 7 C-0.99 6.67 -1.98 6.34 -3 6 C-1.125 1.125 -1.125 1.125 0 0 Z " fill="#E9F2F5" transform="translate(61,134)"/>
<path d="M0 0 C0.99 0.33 1.98 0.66 3 1 C2.34 3.64 1.68 6.28 1 9 C0.34 8.67 -0.32 8.34 -1 8 C-0.67 5.36 -0.34 2.72 0 0 Z " fill="#4A6372" transform="translate(455,127)"/>
<path d="M0 0 C0.66 0.33 1.32 0.66 2 1 C2.33 1.99 2.66 2.98 3 4 C3.66 4.66 4.32 5.32 5 6 C3.68 6.33 2.36 6.66 1 7 C1 6.01 1 5.02 1 4 C0.01 3.67 -0.98 3.34 -2 3 C-1.34 2.01 -0.68 1.02 0 0 Z " fill="#41667A" transform="translate(74,119)"/>
<path d="M0 0 C2 1.625 2 1.625 4 4 C4.25 7.25 4.25 7.25 4 10 C1.7448078 7.7448078 1.02276532 5.9952413 0 3 C0 2.01 0 1.02 0 0 Z " fill="#F0FBFE" transform="translate(488,81)"/>
<path d="M0 0 C2.71329897 0.86031431 4.40863329 1.97772465 6.5625 3.8125 C2.53257218 3.25937265 -1.45772924 2.6566938 -5.4375 1.8125 C-2.4375 -0.1875 -2.4375 -0.1875 0 0 Z " fill="#546F7C" transform="translate(293.4375,81.1875)"/>
<path d="M0 0 C1.98 0.99 3.96 1.98 6 3 C5.01 3.33 4.02 3.66 3 4 C2.67 4.66 2.34 5.32 2 6 C0 5 0 5 -0.6875 3 C-0.790625 2.34 -0.89375 1.68 -1 1 C-0.67 0.67 -0.34 0.34 0 0 Z " fill="#4B6370" transform="translate(277,350)"/>
<path d="M0 0 C2.475 0.495 2.475 0.495 5 1 C5.33 2.32 5.66 3.64 6 5 C4 4 2 3 0 2 C0 1.34 0 0.68 0 0 Z " fill="#4E6873" transform="translate(243,338)"/>
<path d="M0 0 C2.64 1.65 5.28 3.3 8 5 C4 6 4 6 1.75 4.75 C1.1725 4.1725 0.595 3.595 0 3 C0 2.01 0 1.02 0 0 Z " fill="#4C6270" transform="translate(257,335)"/>
<path d="M0 0 C2.33944736 0.28730055 4.6739143 0.61936779 7 1 C6.67 1.66 6.34 2.32 6 3 C5.01 3.33 4.02 3.66 3 4 C0.8125 2.5625 0.8125 2.5625 -1 1 C-0.67 0.67 -0.34 0.34 0 0 Z " fill="#4A6473" transform="translate(164,179)"/>
<path d="M0 0 C-2.3125 2.0625 -2.3125 2.0625 -5 4 C-5.99 3.67 -6.98 3.34 -8 3 C-8 2.34 -8 1.68 -8 1 C-3.375 -1.125 -3.375 -1.125 0 0 Z " fill="#39596A" transform="translate(47,162)"/>
<path d="M0 0 C0 0.66 0 1.32 0 2 C-0.99 2 -1.98 2 -3 2 C-3.33 2.66 -3.66 3.32 -4 4 C-4 3.34 -4 2.68 -4 2 C-4.99 2 -5.98 2 -7 2 C-7.33 2.99 -7.66 3.98 -8 5 C-8 3.68 -8 2.36 -8 1 C-5.29120665 -0.35439668 -2.99066732 -0.06501451 0 0 Z " fill="#2F5971" transform="translate(381,160)"/>
<path d="M0 0 C0.66 0.33 1.32 0.66 2 1 C0.25 6.75 0.25 6.75 -2 9 C-2.25 3.375 -2.25 3.375 0 0 Z " fill="#E2EFF3" transform="translate(434,153)"/>
<path d="M0 0 C2.97 0.33 5.94 0.66 9 1 C9 1.99 9 2.98 9 4 C6.03 3.01 3.06 2.02 0 1 C0 0.67 0 0.34 0 0 Z " fill="#5DA2BD" transform="translate(481,120)"/>
<path d="M0 0 C3.65316671 1.24976756 4.78065836 1.67098753 7 5 C5.35 5 3.7 5 2 5 C2 4.34 2 3.68 2 3 C1.01 2.67 0.02 2.34 -1 2 C-0.67 1.34 -0.34 0.68 0 0 Z " fill="#E5EEF1" transform="translate(346,104)"/>
<path d="M0 0 C2.31 0.66 4.62 1.32 7 2 C7.33 1.34 7.66 0.68 8 0 C7.67 1.65 7.34 3.3 7 5 C3.34683329 3.75023244 2.21934164 3.32901247 0 0 Z " fill="#546D7F" transform="translate(287,371)"/>
<path d="M0 0 C1.32 0.66 2.64 1.32 4 2 C3.34 2 2.68 2 2 2 C2 3.65 2 5.3 2 7 C1.01 6.67 0.02 6.34 -1 6 C-0.67 4.02 -0.34 2.04 0 0 Z " fill="#4C6373" transform="translate(209,289)"/>
<path d="M0 0 C1.98 0 3.96 0 6 0 C4.3545622 1.68762851 2.68711423 3.3540349 1 5 C0.67 5 0.34 5 0 5 C0 3.35 0 1.7 0 0 Z " fill="#EBF7FA" transform="translate(261,250)"/>
<path d="M0 0 C-0.33 0.99 -0.66 1.98 -1 3 C-2.98 3 -4.96 3 -7 3 C-7.33 2.34 -7.66 1.68 -8 1 C-5.29120665 -0.35439668 -2.99066732 -0.06501451 0 0 Z " fill="#395766" transform="translate(383,215)"/>
<path d="M0 0 C2.31 0 4.62 0 7 0 C6.34 1.65 5.68 3.3 5 5 C3.35 3.35 1.7 1.7 0 0 Z " fill="#546E7D" transform="translate(525,162)"/>
<path d="M0 0 C1.9375 0.3125 1.9375 0.3125 4 1 C4.33 1.99 4.66 2.98 5 4 C4.01 5.485 4.01 5.485 3 7 C1 4 1 4 1 2 C0.67 1.34 0.34 0.68 0 0 Z " fill="#385869" transform="translate(535,143)"/>
<path d="M0 0 C4.24822374 0.47202486 6.19989709 2.96655518 9 6 C6.0625 5.1875 6.0625 5.1875 3 4 C2.67 3.01 2.34 2.02 2 1 C1.34 0.67 0.68 0.34 0 0 Z " fill="#5C9FB9" transform="translate(496,116)"/>
<path d="M0 0 C4.875 3.625 4.875 3.625 6 7 C4.68 6.67 3.36 6.34 2 6 C2 5.01 2 4.02 2 3 C1.34 3 0.68 3 0 3 C0 2.01 0 1.02 0 0 Z " fill="#4F6975" transform="translate(369,108)"/>
<path d="M0 0 C0.66 0 1.32 0 2 0 C3.32 2.31 4.64 4.62 6 7 C4.125 6.875 4.125 6.875 2 6 C0.75 2.9375 0.75 2.9375 0 0 Z " fill="#5DAAC1" transform="translate(481,100)"/>
</svg>
